<svg fill="none" height="32" viewBox="0 0 32 32" width="32" xmlns="http://www.w3.org/2000/svg"><path d="m31.5 16c0 8.5604-6.9396 15.5-15.5 15.5-8.56041 0-15.5-6.9396-15.5-15.5 0-8.56041 6.93959-15.5 15.5-15.5 8.5604 0 15.5 6.93959 15.5 15.5z" fill="#fff" stroke="#f0f2f7"/><g fill="#0033ad"><path d="m11.1136 15.9278c-.0462.8022.5714 1.489 1.3736 1.5352h.0866c.808 0 1.4602-.6522 1.4544-1.4602 0-.808-.6522-1.4602-1.4602-1.4544-.7734 0-1.414.606-1.4544 1.3794z"/><path d="m5.67683 15.5527c-.25972-.0173-.48481.1847-.49635.4444-.01155.2597.18468.4848.4444.4963.25972.0173.47904-.1847.49635-.4444.01732-.2597-.18469-.479-.4444-.4963z"/><path d="m11.0213 7.4668c.2308-.11543.3232-.40401.2077-.63487-.1154-.23086-.404-.3232-.6348-.20777-.2309.11543-.3232.39823-.2078.62909.1154.23663.3982.33475.6349.21355-.0058 0 0 0 0 0z"/><path d="m12.4987 10.0466c.3579-.17887.5022-.61751.3232-.97534-.1789-.35784-.6175-.50212-.9753-.32321-.3579.17892-.5022.61755-.3232.97539.1789.35786.6175.50216.9753.32316z"/><path d="m7.52371 11.8186c.27703.1789.6464.1039.83109-.1732.17892-.277.10389-.6464-.17314-.831-.27704-.179-.64641-.1039-.8311.1731s-.10389.6522.17315.8311z"/><path d="m8.40674 15.293c-.404-.0231-.74452.2828-.76761.6868-.02308.404.28281.7445.68681.7676.40401.0231.74453-.2828.76761-.6868.02309-.3983-.2828-.7445-.68681-.7676z"/><path d="m7.6045 20.1815c-.29434.15-.41555.5078-.26549.808.15006.2943.5079.4155.80801.2655.29435-.1501.41555-.5079.26549-.8081-.15006-.2943-.51366-.4155-.80801-.2654z"/><path d="m10.4325 13.7866c.3983.2597.9292.1501 1.1832-.2482.2597-.3982.1501-.9292-.2482-1.1831-.3982-.2597-.9292-.1501-1.1831.2482-.25976.3924-.1501.9234.2481 1.1831z"/><path d="m19.4072 9.98897c.3348.21933.7907.12693 1.0101-.20778.2193-.33474.1269-.79069-.2078-1.01001-.3348-.21932-.7907-.12697-1.01.20778-.2251.34051-.1328.79069.2077 1.01001z"/><path d="m20.8963 7.42058c.2193.14429.5079.0808.6522-.13852.1443-.21931.0808-.50789-.1385-.65218-.2194-.14428-.5079-.0808-.6522.13275-.1385.21932-.0751.51366.1385.65795z"/><path d="m19.5169 14.537c-.8022-.0462-1.4948.5714-1.5352 1.3736-.0462.8022.5714 1.4948 1.3736 1.5352h.0808c.8022 0 1.4544-.6522 1.4544-1.4602.0058-.7676-.6002-1.4082-1.3736-1.4486z"/><path d="m12.9778 13.6827c.2482.4906.7503.8022 1.3043.8022.8023 0 1.4545-.6521 1.4545-1.4601 0-.2251-.052-.4502-.1559-.658-.3636-.7214-1.2408-1.01-1.9565-.6464-.7215.3694-1.01 1.2466-.6464 1.9623z"/><path d="m24.3996 11.8186c.2943-.15.4098-.5136.2597-.808-.15-.2943-.5137-.4098-.808-.2597s-.4098.5079-.2655.8022c.1558.2944.5137.4156.8138.2655z"/><path d="m20.7058 12.2802c-.4213.2136-.5944.7272-.3809 1.1486.2136.4213.7272.5944 1.1485.3809.4214-.2136.5945-.7272.381-1.1485-.2136-.4214-.7273-.5887-1.1486-.381z"/><path d="m15.9443 7.20133c.329.01731.6118-.23664.6349-.56561.0231-.32898-.2367-.61178-.5656-.63487-.329-.01731-.6118.23086-.6349.55984-.0173.33475.2366.61755.5656.64064z"/><path d="m15.9386 10.9701c.4732.0289.8772-.3347.9003-.808.0289-.47327-.3347-.87728-.808-.90036-.4733-.02886-.8773.33474-.9004.80796-.023.4733.3348.8773.8081.9004z"/><path d="m11.2983 19.7197c.4213-.2136.5944-.7272.3809-1.1485-.2136-.4214-.7272-.5945-1.1485-.381-.4214.2136-.59451.7272-.381 1.1486.2136.4213.7272.5944 1.1486.3809z"/><path d="m16.4926 12.2225c-.4386.6753-.2539 1.5756.4214 2.0143.6752.4386 1.5756.2539 2.0142-.4213.4386-.6753.254-1.5757-.4213-2.0143-.2366-.1558-.5137-.2366-.7965-.2366-.4905 0-.9465.2482-1.2178.6579z"/><path d="m19.0263 18.3172c-.3636-.7214-1.2409-1.01-1.9565-.6464-.7215.3636-1.01 1.2409-.6464 1.9566.3636.7214 1.2408 1.01 1.9565.6464.7157-.3579 1.01-1.2236.6522-1.945 0-.0058 0-.0058-.0058-.0116z"/><path d="m21.5716 18.2133c-.3983-.2597-.9293-.15-1.1832.2482-.2597.3982-.1501.9292.2482 1.1832.3982.2597.9292.15 1.1831-.2482.2598-.3925.1501-.9235-.2481-1.1832z"/><path d="m24.3649 16.0259c.0231-.404-.2828-.7445-.6868-.7676s-.7445.2828-.7676.6868.2828.7445.6868.7676c.3983.0231.7446-.2886.7676-.6868z"/><path d="m26.3792 15.5065c-.2597-.0173-.4848.1847-.4963.4444-.0116.2598.1847.4848.4444.4964.2597.0173.479-.1847.4963-.4444.0116-.2597-.1847-.4791-.4444-.4964z"/><path d="m24.4804 20.1815c-.277-.1789-.6464-.1038-.8311.1732-.1789.277-.1039.6464.1732.8311.277.1789.6464.1039.8311-.1732.1846-.277.1038-.6521-.1732-.8311z"/><path d="m11.102 24.5792c-.2193-.1443-.5079-.0808-.6521.1328-.1443.2193-.0808.5079.1327.6521.2193.1443.5079.0809.6522-.1327.15-.2135.0866-.5079-.1328-.6522z"/><path d="m20.9828 24.5332c-.2308.1154-.3232.404-.2077.6348.1154.2309.404.3232.6348.2078.2309-.1154.3232-.3982.2078-.6291-.1154-.2366-.3982-.3347-.6349-.2135z"/><path d="m15.5115 19.7774c.4386-.6752.2539-1.5756-.4214-2.02-.6752-.4386-1.5756-.2539-2.02.4213-.4444.6753-.2539 1.5757.4213 2.0201.2367.1558.5137.2366.7965.2366.4963.0058.9523-.2424 1.2236-.658z"/><path d="m12.5968 22.011c-.3347-.2193-.7907-.1269-1.01.2078-.2193.3348-.1269.7907.2078 1.01.3347.2194.7907.127 1.01-.2077.2251-.3348.1328-.7907-.2078-1.0101z"/><path d="m15.9962 24.7987c-.3289-.0173-.6117.2366-.6348.5656s.2366.6118.5656.6349c.329.0173.6118-.2309.6349-.5599.0173-.3347-.2367-.6175-.5657-.6406z"/><path d="m16.0021 21.0299c-.4733-.0288-.8773.3348-.9004.808-.0289.4733.3348.8773.808.9004.4733.0231.8773-.3348.9004-.808.0288-.4675-.3348-.8773-.808-.9004z"/><path d="m19.5054 21.9533c-.3579.1847-.5022.6234-.3175.9812s.6233.5021.9812.3174c.3578-.1789.5021-.6175.3232-.9753-.1847-.3579-.6233-.5079-.9869-.3233z"/></g></svg>