<svg fill="none" height="32" viewBox="0 0 32 32" width="32" xmlns="http://www.w3.org/2000/svg"><path d="m16 32c8.8366 0 16-7.1634 16-16 0-8.83656-7.1634-16-16-16-8.83656 0-16 7.16344-16 16 0 8.8366 7.16344 16 16 16z" fill="#ff4724"/><path clip-rule="evenodd" d="m15.0549 5.58586c.1612-.27872.4771-.58586.9451-.58586.4675 0 .7835.30661.9451.58592l9.635 16.70288c.1608.2788.2687.7045.0367 1.1093-.2328.4064-.6565.5283-.9812.5283h-19.27151c-.32417 0-.74968-.1217-.98224-.5303-.2308-.4049-.12193-.8297.03809-1.1072zm-6.49803 16.84054h14.88603l-3.5782-2.0792h-7.7297zm4.67463-3.5792h5.5368l-2.7683-4.799zm3.5185-6.5007 3.8665 6.7027 3.5547 2.0656-7.4212-12.86508zm-1.5-4.09693-7.42096 12.86493 3.55416-2.0653 3.8668-6.7027z" fill="#fff" fill-rule="evenodd"/></svg>