<svg fill="none" height="32" viewBox="0 0 32 32" width="32" xmlns="http://www.w3.org/2000/svg"><path d="m16 32c8.8366 0 16-7.1634 16-16 0-8.83656-7.1634-16-16-16-8.83656 0-16 7.16344-16 16 0 8.8366 7.16344 16 16 16z" fill="#eab300"/><path d="m21.1575 15.2297c1.0629-.7294 1.7925-1.5502 1.7925-3.0983 0-2.45946-2.4463-3.61298-3.9355-3.75921-.1212-.01337-.4599-.01937-.4599-.01937l.0031-2.35282-2.4221.00583.0058 2.35299-1.6222-.00446.0045-2.34407-2.4757.00154-.003 2.33139c-.4347.01046-3.045.00737-3.045.00737v2.08301s.65965 0 .8489.0029c.8179-.0014 1.1861.5163 1.1861.8755l.0014.1303v8.9798c-.0117.3178-.2661.5657-.5486.5809-.3711.0172-.92278.0043-.92278.0043l-.47622 2.3605 2.9681.003-.0016 2.3613h2.4686l-.0045-2.3656h1.6222l-.0029 2.3692h2.4191l.0014-2.3559s.1332-.0046.1776-.0046c2.792 0 5.2261-1.6534 5.2628-4.3285.0322-2.1905-1.8439-3.4577-2.8421-3.817zm-6.6398-1.0621v-3.5713c.3313.0015 1.5529.0044 2.2818.0044.0686 0 .1248.012.1903.0153.9921.0482 1.6097.4419 1.9412.9163.2253.3221.3258.6759.3258.9747 0 .2811-.0753.5724-.1243.7124-.0684.1998-.1713.3861-.3041.5503-.1715.2102-.2702.2806-.3782.3564-.3705.2601-.8895.464-1.6368.5002-.0099 0-2.2602.0058-2.2959.0043zm5.4647 5.3022c-.0739.2159-.1852.4172-.3286.5947-.1853.2271-.2915.3034-.4087.3852-.4003.2809-.9612.5015-1.7689.5406-.0107 0-2.9201.0064-2.9585.0045v-4.3599c.3579.0017 2.1557.0048 2.9434.0048.0744 0 .1347.0132.2057.0172 1.0721.0514 1.7396.4776 2.0979.9901.2434.3482.3523.7305.3523 1.0533-.0002.3034-.0818.6181-.1346.7695z" fill="#fff"/></svg>