<svg fill="none" height="32" viewBox="0 0 32 32" width="32" xmlns="http://www.w3.org/2000/svg"><path d="m16 32c8.8366 0 16-7.1634 16-16 0-8.83656-7.1634-16-16-16-8.83656 0-16 7.16344-16 16 0 8.8366 7.16344 16 16 16z" fill="#c2a633"/><path clip-rule="evenodd" d="m9.30011 25.9868h6.52519s9.1747.7891 9.1747-9.826c0-10.20355-8.3782-10.16736-9.9975-10.16037-.0379.00017-.0721.00031-.1024.00031h-5.60017v8.90296h-2.29993v2.1807h2.30011zm6.24959-16.29187h-2.5744v5.20857h4.0502v2.1807h-4.0502v5.2082h2.7005.0266c.7857.001 5.6697.0073 5.662-6.0597-.0077-6.14-4.8519-6.53777-5.8147-6.53777z" fill="#fff" fill-rule="evenodd"/></svg>