<svg fill="none" height="268" viewBox="0 0 267 268" width="267" xmlns="http://www.w3.org/2000/svg" xmlns:xlink="http://www.w3.org/1999/xlink"><clipPath id="a"><path d="m55 56h155.597v155.963h-155.597z"/></clipPath><ellipse cx="133.5" cy="134" fill="#0d022b" rx="133.5" ry="134"/><g clip-path="url(#a)" clip-rule="evenodd" fill="#fff" fill-rule="evenodd"><path d="m179.648 86.9489c-.609-.6093-.974-1.2185-.974-2.0714s.365-1.4622.974-2.0714c1.219-1.0966 3.168-1.0966 4.509 0 .609.6092.974 1.2185.974 2.0714s-.365 1.4621-.974 2.0714c-.61.4873-1.462.8529-2.194.8529-.852.1218-1.705-.1219-2.315-.8529z"/><path d="m171.85 95.3562c-.487-.6092-.853-1.2184-.853-2.0713 0-.853.366-1.4622.853-2.0714 1.097-1.0966 3.046-1.0966 4.143 0 .487.6092.853 1.2184.853 2.0714 0 .8529-.366 1.4621-.853 2.0713-.609.4874-1.218.853-2.071.853s-1.463-.3656-2.072-.853z"/><path d="m163.321 103.398c-.487-.487-.853-1.218-.853-2.071s.366-1.4625.853-2.0717c1.097-1.0966 3.046-1.0966 4.143 0 .487.4874.853 1.2187.853 2.0717s-.366 1.462-.853 2.071c-.609.609-1.219.853-2.072.853-.852 0-1.584-.366-2.071-.853z"/><path d="m155.157 111.562c-.609-.488-.974-1.219-.974-2.072s.365-1.462.974-2.071c1.219-1.097 3.168-1.097 4.509 0 .609.487.974 1.218.974 2.071s-.365 1.584-.974 2.072c-.61.609-1.462.853-2.194.853-.852 0-1.584-.122-2.315-.853z"/><path d="m147.359 119.725c-.609-.487-.853-1.218-.853-2.071s.366-1.462.853-2.071c1.097-1.097 3.046-1.097 4.143 0 .609.487.853 1.218.853 2.071s-.366 1.584-.853 2.071c-.487.61-1.218.853-2.071.853-.731.122-1.584-.121-2.072-.853z"/><path d="m137.977 125.818c0-.853.366-1.462.853-2.072 1.097-1.096 3.046-1.096 4.143 0 .609.61.853 1.219.853 2.072s-.366 1.462-.853 2.071c-.488.487-1.219.853-2.072.853s-1.462-.366-2.071-.853-.853-1.218-.853-2.071z"/><path d="m122.746 143.851c-.487-.487-.853-1.219-.853-2.071 0-.853.366-1.463.853-2.072 1.097-1.096 3.047-1.096 4.143 0 .609.609.853 1.219.853 2.072 0 .852-.366 1.462-.853 2.071s-1.218.853-2.071.853c-.731.122-1.462-.122-2.072-.853z"/><path d="m114.339 152.015c-.609-.488-.975-1.219-.975-2.072s.366-1.462.975-2.071c1.218-1.097 3.168-1.097 4.508 0 .609.609.975 1.218.975 2.071s-.366 1.462-.975 2.072c-.609.609-1.462.853-2.193.853-.975.121-1.706-.244-2.315-.853z"/><path d="m106.419 160.3c-.487-.487-.853-1.218-.853-2.071s.366-1.584.853-2.072c1.097-1.096 3.046-1.096 4.143 0 .487.488.853 1.219.853 2.072s-.366 1.462-.853 2.071c-.61.609-1.219.853-2.072.853s-1.34-.365-2.071-.853z"/><path d="m98.2553 168.464c-.6092-.488-.8529-1.219-.8529-2.072s.3655-1.462.8529-2.071c1.0966-1.097 3.0457-1.097 4.1427 0 .487.609.853 1.218.853 2.071s-.366 1.584-.853 2.072c-.609.609-1.218.853-2.071.853-.7314 0-1.5843-.244-2.0717-.853z"/><path d="m89.8479 176.627c-.6092-.487-.9747-1.218-.9747-2.071s.3655-1.462.9747-2.071c1.2185-1.097 3.168-1.097 4.2646 0 .6093.609.9748 1.218.9748 2.071s-.3655 1.584-.9748 2.071c-.6092.488-1.4621.853-2.1932.853-.8529 0-1.584-.243-2.0714-.853z"/><path d="m81.8061 184.791c-.6092-.609-.8529-1.218-.8529-2.071s.3655-1.462.8529-2.072c1.0966-1.096 3.0462-1.096 4.1428 0 .6092.61.8529 1.219.8529 2.072s-.3655 1.462-.8529 2.071c-.4874.488-1.2185.853-2.0714.853-.6092.122-1.3403-.244-2.0714-.853z"/><path d="m85.9489 86.9489c.4874-.6093.8529-1.2185.8529-2.0714s-.3655-1.4622-.8529-2.0714c-1.0966-1.0966-3.0462-1.0966-4.1428 0-.6092.6092-.8529 1.2185-.8529 2.0714s.3655 1.4621.8529 2.0714c.4874.4873 1.2185.8529 2.0714.8529.8529.1218 1.584-.1219 2.0714-.8529z"/><path d="m94.1125 95.3562c.6093-.6092.9748-1.2184.9748-2.0713 0-.853-.3655-1.4622-.9748-2.0714-1.2184-1.0966-3.168-1.0966-4.5083 0-.6092.6092-.9747 1.2184-.9747 2.0714 0 .8529.3655 1.4621.9747 2.0713.6093.4874 1.4622.853 2.1933.853.8529-.1219 1.7058-.3656 2.315-.853z"/><path d="m102.398 103.398c.487-.487.853-1.218.853-2.071s-.366-1.4625-.853-2.0717c-1.097-1.0966-3.0461-1.0966-4.1427 0-.4874.4874-.8529 1.2187-.8529 2.0717s.3655 1.462.8529 2.071c.6093.609 1.2185.853 2.0717.853.731 0 1.462-.366 2.071-.853z"/><path d="m110.562 111.562c.487-.488.853-1.219.853-2.072s-.366-1.462-.853-2.071c-1.097-1.097-3.046-1.097-4.143 0-.487.487-.853 1.218-.853 2.071s.366 1.584.853 2.072c.609.609 1.218.853 2.071.853.731 0 1.462-.122 2.072-.853z"/><path d="m118.604 119.725c.609-.487.974-1.218.974-2.071s-.365-1.462-.974-2.071c-1.097-1.097-3.168-1.097-4.265 0-.609.487-.975 1.218-.975 2.071s.366 1.584.975 2.071c.609.61 1.462.853 2.193.853.731.122 1.584-.121 2.072-.853z"/><path d="m127.742 125.818c0-.853-.366-1.462-.853-2.072-1.096-1.096-3.046-1.096-4.143 0-.609.61-.853 1.219-.853 2.072s.366 1.462.853 2.071c.488.487 1.219.853 2.072.853s1.462-.366 2.071-.853.853-1.218.853-2.071z"/><path d="m135.053 136.175c.609-.61.853-1.219.853-2.072s-.366-1.462-.853-2.071c-1.097-1.097-3.046-1.097-4.143 0-.609.609-.853 1.218-.853 2.071s.366 1.462.853 2.072c.487.487 1.218.853 2.071.853s1.584-.366 2.072-.853z"/><path d="m143.216 143.851c.61-.487.975-1.219.975-2.071 0-.853-.365-1.463-.975-2.072-1.218-1.096-3.168-1.096-4.264 0-.609.609-.975 1.219-.975 2.072 0 .852.366 1.462.975 2.071s1.462.853 2.193.853c.609.122 1.462-.122 2.071-.853z"/><path d="m151.502 152.015c.487-.488.853-1.219.853-2.072s-.366-1.462-.853-2.071c-1.097-1.097-3.046-1.097-4.143 0-.487.609-.853 1.218-.853 2.071s.366 1.462.853 2.072c.609.609 1.219.853 2.072.853.609.121 1.462-.244 2.071-.853z"/><path d="m159.666 160.3c.487-.487.853-1.218.853-2.071s-.366-1.584-.853-2.072c-1.097-1.096-3.046-1.096-4.143 0-.487.488-.853 1.219-.853 2.072s.366 1.462.853 2.071c.609.609 1.218.853 2.071.853s1.462-.365 2.072-.853z"/><path d="m167.342 168.464c.609-.488.853-1.219.853-2.072s-.366-1.462-.853-2.071c-1.097-1.097-3.046-1.097-4.143 0-.487.609-.853 1.218-.853 2.071s.366 1.584.853 2.072c.609.609 1.219.853 2.072.853.731 0 1.584-.244 2.071-.853z"/><path d="m175.993 176.627c.609-.487.853-1.218.853-2.071s-.366-1.462-.853-2.071c-1.097-1.097-3.046-1.097-4.143 0-.609.609-.853 1.218-.853 2.071s.366 1.584.853 2.071c.488.488 1.219.853 2.072.853s1.584-.243 2.071-.853z"/><path d="m184.157 184.791c.609-.609.974-1.218.974-2.071s-.365-1.462-.974-2.072c-1.219-1.096-3.168-1.096-4.265 0-.609.61-.975 1.219-.975 2.072s.366 1.462.975 2.071c.609.488 1.462.853 2.193.853.61.122 1.341-.244 2.072-.853z"/><path d="m105.322 89.2639c8.286-5.483 17.424-8.0418 27.538-8.1636 9.869 0 19.007 2.6806 27.537 8.1636l17.546-17.5458c-13.769-10.4787-28.634-15.7181-45.083-15.7181-16.45 0-31.559 5.2394-44.9616 15.7181z"/><path d="m87.7766 161.275c-5.605-8.529-8.2856-17.546-8.2856-27.294 0-9.869 2.6806-19.008 8.2856-27.293l-17.424-17.4241c-10.2351 13.4031-15.3526 28.2681-15.3526 44.8391 0 16.328 5.1175 31.315 15.4744 44.961z"/><path d="m160.275 178.699c-8.286 5.605-17.424 8.529-27.294 8.651-10.113 0-19.373-2.681-27.659-8.529l-17.5454 17.424c13.5244 10.6 28.6334 15.84 45.2044 15.718 16.45-.122 31.315-5.483 44.718-15.718z"/><path d="m177.455 106.444c5.605 8.529 8.529 17.79 8.286 27.781-.122 9.748-2.925 18.643-8.286 26.806l17.546 17.424c10.357-13.403 15.718-28.268 15.718-44.595.122-16.571-5.117-31.68-15.718-45.2053z"/><path d="m195.732 184.182c6.702 0 12.307 5.483 12.307 12.306 0 6.702-5.484 12.307-12.307 12.307-6.701 0-12.306-5.483-12.306-12.307 0-6.823 5.483-12.306 12.306-12.306z"/><path d="m70.2307 184.182c6.7016 0 12.1846 5.483 12.1846 12.306 0 6.702-5.483 12.307-12.1846 12.307-6.7015 0-12.1846-5.483-12.1846-12.307 0-6.823 5.4831-12.306 12.1846-12.306z"/><path d="m195.976 58.6806c6.701 0 12.184 5.4831 12.184 12.3065 0 6.8233-5.483 12.3064-12.184 12.3064-6.702 0-12.185-5.4831-12.185-12.3064 0-6.8234 5.483-12.3065 12.185-12.3065z"/><path d="m69.987 58.6806c6.7016 0 12.3065 5.4831 12.3065 12.1846s-5.4831 12.1846-12.3065 12.1846c-6.7015 0-12.3064-5.4831-12.3064-12.1846s5.4831-12.1846 12.3064-12.1846z"/></g></svg>