<svg fill="none" height="425" viewBox="0 0 421 425" width="421" xmlns="http://www.w3.org/2000/svg" xmlns:xlink="http://www.w3.org/1999/xlink"><linearGradient id="a" gradientUnits="userSpaceOnUse" x1="256.785" x2="380.066" y1="142.246" y2="266.542"><stop offset=".21" stop-color="#f15a24"/><stop offset=".6841" stop-color="#fbb03b"/></linearGradient><linearGradient id="b" gradientUnits="userSpaceOnUse" x1="165.946" x2="42.6653" y1="293.574" y2="169.278"><stop offset=".21" stop-color="#ed1e79"/><stop offset=".8929" stop-color="#522785"/></linearGradient><ellipse cx="210.5" cy="212.5" fill="#fff" rx="210.5" ry="212.5"/><path d="m303.6 128c-20 0-41.9 10.9-65 32.4-10.9 10.1-20.5 21.1-27.5 29.8 0 0 11.2 12.9 23.5 26.8 6.7-8.4 16.2-19.8 27.3-30.1 20.5-19.2 33.9-23.1 41.6-23.1 28.8 0 52.2 24.2 52.2 54.1 0 29.6-23.4 53.8-52.2 54.1-1.4 0-3-.2-5-.6 8.4 3.9 17.5 6.7 26 6.7 52.8 0 63.2-36.5 63.8-39.1 1.5-6.7 2.4-13.7 2.4-20.9-.1-49.7-39.1-90.1-87.1-90.1z" fill="url(#a)"/><path d="m119.1 307.8c20 0 41.9-10.9 65-32.4 10.9-10.1 20.5-21.1 27.5-29.8 0 0-11.2-12.9-23.5-26.8-6.7 8.4-16.2 19.8-27.3 30.1-20.5 19-34 23.1-41.6 23.1-28.8 0-52.2-24.2-52.2-54.1 0-29.6 23.4-53.8 52.2-54.1 1.4 0 3 .2 5 .6-8.4-3.9-17.5-6.7-26-6.7-52.8-.1-63.2 36.4-63.8 39.1-1.5 6.7-2.4 13.7-2.4 20.9 0 49.7 39 90.1 87.1 90.1z" fill="url(#b)"/><path clip-rule="evenodd" d="m159.3 187.7c-5.8-5.6-34-28.5-61-29.3-48.2-1.2-62.3 33.8-63.6 38.3 9.3-39.2 43.7-68.5 84.5-68.7 33.3 0 67 32.7 91.9 62.2l.1-.1s11.2 12.9 23.5 26.8c0 0 14 16.5 28.8 31 5.8 5.6 33.9 28.2 60.9 29 49.5 1.4 63.2-35.6 63.9-38.4-9.1 39.5-43.6 68.9-84.6 69.1-33.3 0-67-32.7-92-62.2 0 .1-.1.1-.1.2 0 0-11.2-12.9-23.5-26.8.1 0-13.9-16.6-28.8-31.1zm-124.6 9.4c0-.1 0-.2.1-.3-.1.1-.1.2-.1.3z" fill="#29abe2" fill-rule="evenodd"/></svg>