<svg fill="none" height="32" viewBox="0 0 32 32" width="32" xmlns="http://www.w3.org/2000/svg" xmlns:xlink="http://www.w3.org/1999/xlink"><clipPath id="a"><path d="m0 0h32v32h-32z"/></clipPath><g clip-path="url(#a)"><circle cx="16" cy="16" fill="#0e0e23" r="16"/><path d="m16 32c8.8366 0 16-7.1634 16-16 0-8.83656-7.1634-16-16-16-8.83656 0-16 7.16344-16 16 0 8.8366 7.16344 16 16 16z" fill="#172852"/><path d="m27.7649 13.6244c-1.1025-5.49-5.9509-9.62561-11.7655-9.62561-1.3388-.00133-2.6684.22165-3.9335.65966-.5667.2908-1.3495.70895-1.2733 1.45486.1897.86874 1.079 1.29591 1.7764 1.71262 2.9613 1.55016 6.2331 2.34127 9.3651 3.46237-.0029-.0102-.0062-.0205-.009-.0308 2.0067.6264 4.0099 1.3128 5.8398 2.3669z" fill="#ffd83d"/><path d="m22.8459 20.2664c-3.9894.0662-7.9104-1.6896-10.6628-4.5496-2.28641-2.3647-3.67392-5.504-4.07747-8.75586-2.50248 2.18722-4.08859 5.39656-4.10645 8.97726.00883 2.3823.71408 4.7663 2.0562 6.7395 1.10594 1.6594 2.64028 3.0332 4.40342 3.9697 1.7105.8918 3.6115 1.3561 5.5406 1.3532 5.3467 0 9.8764-3.4967 11.428-8.3277-1.513.2923-3.0303.6422-4.5815.5935z" fill="#ffd83d"/><path d="m27.7698 13.6496c-1.7937-1.0349-3.7584-1.7079-5.7262-2.3207l-.1101-.0392c.568 1.9305 2.1001 3.3597 3.6012 4.6092.7574.5886 1.4836 1.2528 2.3663 1.6495.1669-1.2981.1226-2.6148-.1312-3.8988z" fill="#ff6f03"/></g></svg>