<svg height="32" viewBox="0 0 32 32" width="32" xmlns="http://www.w3.org/2000/svg"><g fill="none" fill-rule="evenodd"><circle cx="16" cy="16" fill="#384182" r="16"/><path d="m9.5 27 3.618-16.789 2.03 12.6zm3.688-16.885 5.497 12.709-3.443-.06-2.054-12.65zm.082-.096 7.2 1.023-1.668 11.782zm5.66 12.624 1.623-11.493 1.062 1.348zm1.517-11.71-7.026-.999 6.326-2.082zm-7.06-1.107 4.306-2.985 2.054.903zm-.106-.036.83-1.589 3.512-1.408zm.83-1.66.396-1.24 2.894-.097-3.29 1.336zm.373-1.337.933-.999 2.008.903zm.992-1.059 1.4-.686 1.81 2.118zm1.599-.602 2.089.915-.374 1.131zm1.785 2.082.385-1.155.467 1.589zm-1.937-2.214h1.529l.757.842a.048.048 0 0 1 -.054.076zm2.416.963 3.11.868a.072.072 0 0 1 0 .14l-2.643.725z" fill="#fff"/></g></svg>