<svg fill="none" height="100" viewBox="0 0 100 100" width="100" xmlns="http://www.w3.org/2000/svg" xmlns:xlink="http://www.w3.org/1999/xlink"><linearGradient id="a"><stop offset="0" stop-color="#00ffa3"/><stop offset="1" stop-color="#dc1fff"/></linearGradient><linearGradient id="b" gradientUnits="userSpaceOnUse" x1="75.4635" x2="39.8162" xlink:href="#a" y1="18.9918" y2="85.8843"/><linearGradient id="c" gradientUnits="userSpaceOnUse" x1="60.3689" x2="24.7216" xlink:href="#a" y1="10.9478" y2="77.8404"/><linearGradient id="d" gradientUnits="userSpaceOnUse" x1="67.8681" x2="32.2208" xlink:href="#a" y1="14.9442" y2="81.8368"/><clipPath id="e"><path d="m18.75 25h62.5v50h-62.5z"/></clipPath><path d="m50 100c27.6142 0 50-22.3858 50-50s-22.3858-50-50-50-50 22.3858-50 50 22.3858 50 50 50z" fill="#000"/><g clip-path="url(#e)"><path d="m28.9021 63.1617c.3772-.385.8958-.6096 1.4458-.6096h49.8806c.9115 0 1.3673 1.1229.7229 1.7806l-9.8535 10.0577c-.3772.385-.8958.6096-1.4458.6096h-49.8806c-.9115 0-1.3672-1.1229-.7229-1.7806z" fill="url(#b)"/><path d="m28.9021 25.6096c.3929-.385.9115-.6096 1.4458-.6096h49.8806c.9115 0 1.3673 1.1229.7229 1.7806l-9.8535 10.0577c-.3772.385-.8958.6096-1.4458.6096h-49.8806c-.9115 0-1.3672-1.1229-.7229-1.7806z" fill="url(#c)"/><path d="m71.0979 44.2653c-.3772-.385-.8958-.6095-1.4458-.6095h-49.8806c-.9115 0-1.3672 1.1228-.7229 1.7805l9.8535 10.0578c.3772.385.8958.6095 1.4458.6095h49.8806c.9115 0 1.3673-1.1228.7229-1.7805z" fill="url(#d)"/></g></svg>