<svg width="96" height="140" viewBox="0 0 96 140" fill="none" xmlns="http://www.w3.org/2000/svg">
<path d="M13.6782 55.8279L48.3712 0V73.8554L13.6782 55.8279Z" fill="#00A3FF"/>
<path d="M13.6782 55.8279L48.3712 35.5V73.8554L13.6782 55.8279Z" fill="#006299"/>
<path d="M83.0645 55.8279L48.3714 0V73.8554L83.0645 55.8279Z" fill="#006299"/>
<path d="M83.0645 55.8279L48.3714 35.5V73.8554L83.0645 55.8279Z" fill="#002133"/>
<path d="M96 91.4251C96 118.252 74.5097 140 48 140V85.8471L87.6233 64C92.9081 71.8045 96 81.2494 96 91.4251Z" fill="#006299"/>
<path d="M47.9998 85.8471L87.623 64L47.9998 140V85.8471Z" fill="#002133"/>
<path d="M0 91.4251C0 118.252 21.4903 140 48 140V85.8471L8.37675 64C3.09186 71.8045 0 81.2494 0 91.4251Z" fill="#00A3FF"/>
<path d="M48.0002 85.8471L8.37695 64L48.0002 140V85.8471Z" fill="#006299"/>
</svg>
