<svg fill="none" height="32" viewBox="0 0 32 32" width="32" xmlns="http://www.w3.org/2000/svg"><path d="m16 32c8.8366 0 16-7.1634 16-16 0-8.83656-7.1634-16-16-16-8.83656 0-16 7.16344-16 16 0 8.8366 7.16344 16 16 16z" fill="#5546ff"/><path d="m22.5282 24.4305-3.4443-5.4067h4.9461v-2.0426h-16.22024v2.0426h4.94614l-3.44426 5.4067h2.56316l4.0451-6.3479 4.0451 6.3479zm1.5018-9.4318v-2.0425h-4.846l3.4042-5.3467h-2.5832l-4.0851 6.4481-4.0851-6.4481h-2.58324l3.40424 5.3467h-4.84604v2.0626z" fill="#fff"/></svg>