<?xml version="1.0" standalone="no"?>
<!DOCTYPE svg PUBLIC "-//W3C//DTD SVG 20010904//EN"
 "http://www.w3.org/TR/2001/REC-SVG-20010904/DTD/svg10.dtd">
<svg version="1.0" xmlns="http://www.w3.org/2000/svg"
 width="32.000000pt" height="32.000000pt" viewBox="0 0 300.000000 300.000000"
 preserveAspectRatio="xMidYMid meet">
<metadata>
Created by potrace 1.10, written by Peter Selinger 2001-2011
</metadata>
<g transform="translate(0.000000,300.000000) scale(0.100000,-0.100000)"
fill="#000000" stroke="none">
<path d="M0 1500 l0 -1500 1500 0 1500 0 0 1500 0 1500 -1500 0 -1500 0 0
-1500z m2990 0 l0 -1490 -1490 0 -1490 0 0 1490 0 1490 1490 0 1490 0 0 -1490z"/>
<path d="M1150 2944 c-327 -70 -659 -297 -867 -594 -129 -183 -246 -483 -242
-622 l1 -33 13 40 c7 22 21 69 30 105 28 102 59 195 67 198 5 2 8 12 8 22 0
29 87 187 158 285 79 111 240 271 348 347 85 60 298 172 349 183 17 4 39 11
50 16 11 5 72 22 135 39 103 26 110 29 65 29 -27 -1 -79 -7 -115 -15z"/>
<path d="M1790 2933 c183 -48 236 -66 345 -120 159 -78 246 -138 366 -251 90
-85 239 -264 239 -287 0 -4 14 -27 32 -53 18 -26 32 -49 31 -52 0 -3 8 -23 20
-45 42 -83 111 -291 101 -307 -3 -4 0 -8 5 -8 6 0 10 -3 9 -7 -3 -14 23 -122
31 -127 14 -9 -9 149 -35 239 -105 373 -367 699 -713 889 -162 90 -370 156
-481 155 -41 -1 -36 -3 50 -26z"/>
<path d="M984 2015 c-77 -38 -124 -116 -118 -197 3 -36 43 -129 89 -203 14
-22 34 -56 45 -75 11 -19 24 -42 29 -50 5 -8 28 -46 50 -83 23 -38 41 -70 41
-72 0 -2 13 -26 29 -53 28 -47 46 -80 129 -232 20 -36 39 -67 42 -70 4 -3 22
-32 40 -65 67 -122 97 -154 143 -155 38 0 93 44 107 86 6 19 15 34 19 34 4 0
22 28 39 63 18 34 60 106 92 160 33 55 60 103 60 108 0 5 5 9 10 9 6 0 10 5
10 12 0 6 13 32 29 57 15 25 81 136 144 246 147 254 156 287 102 395 -26 52
-66 84 -121 99 -24 6 -216 10 -499 11 l-460 1 -51 -26z m1041 -31 c53 -28 85
-89 85 -162 0 -57 -21 -99 -196 -395 -34 -57 -85 -144 -137 -234 -19 -32 -60
-103 -92 -158 -32 -55 -74 -129 -94 -164 -40 -70 -68 -90 -107 -75 -24 8 -121
167 -326 533 -16 29 -44 77 -61 105 -16 28 -56 96 -87 151 -31 55 -70 122 -85
149 -60 103 -13 233 95 265 22 6 210 9 500 8 450 -2 466 -3 505 -23z"/>
<path d="M1048 1869 c-29 -16 -21 -51 34 -145 162 -280 248 -430 299 -522 31
-57 58 -100 60 -95 2 4 3 180 1 391 l-2 382 -188 0 c-108 0 -194 -5 -204 -11z
m346 -35 c14 -13 16 -54 16 -295 0 -153 -4 -279 -9 -279 -14 0 -41 36 -73 100
-7 14 -27 48 -45 77 -18 29 -33 55 -33 58 0 4 -8 19 -19 33 -34 49 -161 283
-161 297 0 20 20 23 172 24 112 1 139 -2 152 -15z"/>
<path d="M1568 1498 c-2 -211 0 -387 4 -392 3 -4 15 11 27 35 11 24 38 73 59
109 22 36 80 135 129 220 49 85 113 194 141 242 56 94 66 140 33 158 -12 6
-96 10 -205 10 l-185 0 -3 -382z m371 338 c13 -16 6 -37 -36 -107 -16 -25 -64
-108 -108 -183 -156 -270 -179 -306 -187 -306 -5 0 -8 133 -8 295 0 269 1 295
18 304 28 17 307 14 321 -3z"/>
<path d="M2945 1248 c-41 -193 -132 -415 -221 -541 -19 -26 -34 -50 -34 -53 0
-3 -6 -11 -12 -18 -7 -7 -26 -31 -43 -52 -82 -106 -229 -234 -374 -326 -49
-32 -206 -106 -261 -123 -30 -10 -64 -22 -75 -26 -17 -7 -70 -22 -125 -35 -8
-2 -35 -10 -60 -18 l-45 -15 35 0 c112 -2 361 82 524 177 378 219 672 648 715
1045 4 37 4 67 1 67 -4 0 -15 -37 -25 -82z"/>
<path d="M41 1284 c-3 -113 84 -371 177 -529 159 -267 405 -488 677 -608 143
-62 307 -107 390 -106 l40 0 -50 14 c-27 8 -79 22 -115 31 -332 83 -612 272
-839 566 -12 14 -21 29 -21 31 0 3 -17 32 -39 64 -60 91 -158 313 -144 327 4
3 2 6 -4 6 -5 0 -10 6 -11 13 0 6 -3 21 -6 32 -3 11 -15 54 -26 95 -27 98 -28
101 -29 64z"/>
</g>
</svg>
