<svg fill="none" height="32" viewBox="0 0 32 32" width="32" xmlns="http://www.w3.org/2000/svg"><path d="m16 32c8.8366 0 16-7.1634 16-16 0-8.83656-7.1634-16-16-16-8.83656 0-16 7.16344-16 16 0 8.8366 7.16344 16 16 16z" fill="#000"/><path d="m24.745 12.266c-.799-.567-1.654-1.172-2.49-1.772-.019-.014-.037-.028-.06-.042-.098-.0804-.2089-.1437-.328-.187l-.01-.005c-2.2369-.54889-4.4733-1.10023-6.709-1.65398l-5.984-1.477-.157-.042c-.18-.051-.388-.108-.61-.08-.06081.00932-.11884.03185-.17.066l-.056.047c-.07012.07191-.1237.15825-.157.253l-.014.038v.215l.01.033c1.26 3.58498 2.554 7.22198 3.802 10.74098.961 2.71 1.96 5.516 2.934 8.272.06.187.231.31.444.328h.046c.0931.0024.1851-.0203.2664-.0657.0812-.0454.1488-.1118.1956-.1923l3.66-5.413c.891-1.317 1.783-2.638 2.675-3.955l1.095-1.622c.6-.89 1.22-1.809 1.835-2.704l.032-.046v-.057c.014-.164.018-.501-.25-.68zm-4.288 1.973c-.86.454-1.737.923-2.62 1.387l1.544-1.678c.642-.703 1.312-1.43 1.968-2.142l.014-.014c.055-.075.125-.145.199-.22.05-.051.106-.103.157-.164.342.24.688.483 1.021.722.24.173.485.347.735.52-1.0095.523-2.0155 1.0527-3.018 1.589zm-2.208-.225c-.661.726-1.345 1.471-2.024 2.207-1.3178-1.6215-2.6395-3.2398-3.965-4.855l-1.779-2.16998-.004-.005c-.134-.154-.264-.323-.393-.482-.083-.108-.171-.211-.259-.319.536.14 1.077.272 1.608.398.467.113.952.23 1.428.352l8.045 1.98198c-.892.966-1.789 1.945-2.657 2.892zm-2.325 9.134c.051-.492.107-.998.153-1.495.042-.399.083-.806.125-1.195.064-.624.134-1.27.19-1.903l.013-.112c.046-.404.092-.82.12-1.238.0538-.0304.1096-.0571.167-.08.069-.032.138-.06.207-.102 1.0673-.5688 2.1363-1.1345 3.207-1.697 1.068-.562 2.163-1.144 3.249-1.72-.9854 1.4473-1.9667 2.8973-2.944 4.35-.827 1.222-1.677 2.483-2.523 3.725-.332.497-.679 1.003-1.007 1.49-.37.544-.749 1.101-1.118 1.66.046-.563.101-1.13.161-1.683zm-6.44-13.65198c-.06-.169-.126-.342-.181-.506 1.248 1.52798 2.504 3.06498 3.729 4.55498.633.773 1.266 1.542 1.899 2.32.125.145.25.3.37.45.157.192.314.394.485.586-.056.482-.102.97-.153 1.438-.032.328-.064.657-.101.99v.004c-.014.21-.042.422-.065.628l-.106.933-.005.032c-.083.947-.185 1.903-.282 2.831-.041.384-.078.778-.12 1.172-.023-.07-.05-.141-.074-.207-.0704-.191-.1381-.383-.203-.576l-.495-1.392-4.699-13.25798" fill="#fff"/></svg>