<svg fill="none" height="32" viewBox="0 0 32 32" width="32" xmlns="http://www.w3.org/2000/svg" xmlns:xlink="http://www.w3.org/1999/xlink"><radialGradient id="a" cx="0" cy="0" gradientTransform="matrix(-41 0 0 -20.5246 29 0)" gradientUnits="userSpaceOnUse" r="1"><stop offset="0" stop-color="#ffcae3"/><stop offset="1" stop-color="#f3f5f7"/></radialGradient><path d="m16 32c8.8366 0 16-7.1634 16-16 0-8.83656-7.1634-16-16-16-8.83656 0-16 7.16344-16 16 0 8.8366 7.16344 16 16 16z" fill="url(#a)"/><g fill="#ff007a"><path d="m13.6187 11.9129c-.0355.1389-.0976.2693-.1826.3839-.1584.2089-.3679.3718-.6077.4725-.2157.0945-.4441.1555-.6775.1812-.0469.006-.0955.0098-.1427.0135l-.0112.0008c-.1478.0057-.29.0594-.4057.1533-.1157.0938-.1988.2228-.2372.3681-.0175.0724-.0306.1457-.0391.2197-.0134.1115-.0203.2257-.0278.3492-.0054.0887-.011.1822-.0196.2829-.0502.4104-.167.8095-.3455 1.1811-.0365.0781-.0736.1538-.1102.2281-.1957.3986-.3726.7587-.3218 1.2409.0397.3715.2269.6205.4756.8773.1181.1229.2748.2278.4373.3368.4551.3049.9567.6411.7915 1.4881-.1353.6863-1.2544 1.4065-2.8274 1.6581.15265-.0236-.1838-.6071-.22089-.6715l-.00218-.0038c-.04339-.0691-.08783-.1371-.13221-.2051-.12803-.1961-.25544-.3912-.35493-.6076-.2628-.565-.38459-1.2188-.2769-1.838.09755-.5603.4619-1.008.81271-1.439.05717-.0703.11404-.1401.16927-.2099.4692-.5924.96143-1.3686 1.07043-2.1377.0092-.0669.0174-.1398.026-.2164.0155-.1372.0323-.2866.0586-.4354.0391-.2571.1183-.5061.2346-.7378.0794-.152.1839-.2889.309-.4047.0652-.0615.1082-.1435.1221-.2329.014-.0893-.0019-.1808-.0452-.2599l-2.50753-4.58574 3.60173 4.51924c.041.0524.0928.095.1518.1247s.1237.0459.1895.0472c.0659.0015.1312-.0118.1914-.0389.0602-.0272.1138-.0674.1569-.118.0456-.0541.0716-.1225.0733-.1937.0017-.0713-.0207-.1409-.0636-.1973-.1678-.218-.3424-.4389-.5161-.6588-.0699-.0885-.1398-.1769-.2089-.2647l-.9063-1.14063-1.81915-2.27724-2.48055-3.16483 2.71387 2.96083 1.93643 2.17687.966 1.091c.0889.1019.1778.2028.2668.3037.2315.2628.463.5256.6946.8043l.0525.0652.0116.101c.0156.137.0079.2757-.0231.41z"/><path d="m22.8758 13.4463.0039.0059c-.0007-.4863-.2969-1.2886-.8961-2.0602l-.0141-.0189c-.1846-.2321-.3858-.4499-.6019-.6518-.0404-.0398-.084-.0789-.1282-.118-.2769-.2455-.5796-.4593-.9026-.63739l-.023-.01173c-1.0147-.56182-2.3351-.8512-3.9632-.52532-.2187-.26992-.4542-.52529-.7051-.76451-.3842-.37229-.8365-.66436-1.3313-.85966-.4903-.18251-1.0154-.24763-1.5345-.19032.5004.0458.9878.18733 1.4364.41712.4334.23606.8237.54602 1.1538.91638.3346.37804.6492.77401.9422 1.18623l.074.0978c.2866.3796.5784.766.942 1.1099.2002.1916.4235.3565.6647.4907.0641.0333.1288.0645.1923.0919.0634.0275.123.0528.1872.0763.1237.0489.2519.0893.3801.1265.5128.1485 1.0377.202 1.5505.2307.0701.0037.1401.0072.2098.0107.1844.0092.3672.0184.5472.0316.245.0149.488.0537.7256.116.357.0946.6712.3109.8903.6127.0745.1005.1414.2066.2.3174z"/><path d="m21.3691 10.7197c-.0259-.0243-.0523-.0484-.0785-.0724l-.0497-.0456.0382.0357c.0301.0284.0602.0566.09.0823z"/><path d="m20.7432 15.5228c-1.649-.6804-3.3739-1.392-3.1171-3.3896.5506.5978 1.4148.7231 2.3547.8594.8527.1237 1.7677.2564 2.5674.7589 1.8871 1.1849 1.6115 3.487.9705 4.3342.0578-1.3939-1.3297-1.9664-2.7755-2.5629z"/><path d="m14.089 14.5214c.4352-.0423 1.3627-.2724.948-1.0147-.0893-.1511-.2186-.2735-.3731-.3531-.1545-.0797-.3281-.1134-.5006-.0973-.1751.0191-.3402.0925-.4728.2103-.1327.1177-.2265.2741-.2688.448-.1288.4855.0077.872.6673.8068z"/><path d="m13.9742 8.6471c-.2731-.32067-.6968-.48882-1.1121-.55009-.0156.10518-.0254.21114-.0295.31741-.0186.87531.2872 1.83668.8787 2.50468.1893.216.4176.393.6724.5214.1475.0731.5385.2542.6833.0913.011-.0149.018-.0326.0201-.0511.0022-.0186-.0006-.0374-.0079-.0545-.024-.0698-.0704-.1331-.1164-.196-.0327-.0445-.0651-.0889-.0893-.1351-.0245-.0465-.0506-.0919-.0768-.1372-.0492-.0855-.0984-.1708-.1361-.2636-.0993-.2428-.151-.5011-.2026-.75845-.0103-.05133-.0206-.10291-.0313-.15404-.0789-.39692-.1795-.81405-.4525-1.13471z"/><path d="m19.8092 15.6314c-.4235 1.2019.2596 2.2171.9388 3.2264.7597 1.1289 1.5143 2.2503.7092 3.6171 1.5646-.657 2.3075-2.6416 1.6582-4.2163-.4092-.9959-1.3952-1.5358-2.3106-2.037-.3551-.1944-.6996-.383-.9956-.5902z"/><path d="m15.2217 18.5007c-.2835.1177-.5509.2721-.7955.4595.5561-.205 1.1398-.3222 1.7307-.3474.1069-.0064.2146-.0114.3231-.0165.1881-.0088.3793-.0178.5743-.0343.3194-.022.6344-.0878.9364-.1955.3166-.1126.6047-.2951.8436-.5345.2413-.247.4106-.5572.489-.8961.069-.3203.0594-.6528-.0282-.9682-.0875-.3156-.2502-.6042-.4736-.8405.1078.278.1741.5709.1968.8688.0195.2774-.0176.5559-.109.818-.0893.2484-.2351.4717-.4256.6517-.1969.1818-.4248.3254-.6724.4237-.3442.1409-.7333.1986-1.1387.2587-.185.0274-.3734.0553-.5625.0919-.3039.0566-.6015.144-.8884.2607z"/><path clip-rule="evenodd" d="m20.1669 23.4368-.0565.0461c-.0718.0588-.1449.1186-.2235.1723-.1.0669-.2048.1262-.3135.1773-.2263.1122-.4751.1695-.7268.1674-.682-.013-1.1641-.5292-1.4461-1.1125-.074-.1529-.1391-.3105-.2042-.4681-.1043-.2523-.2085-.5046-.349-.7377-.3262-.5416-.8845-.9776-1.5384-.8968-.2665.0339-.5166.1558-.6646.3911-.3897.6146.1698 1.4755.8832 1.3537.0607-.0094.1201-.0261.177-.0496.0566-.0245.1095-.0572.157-.0971.0997-.0843.1748-.1948.2173-.3193.0469-.1299.0573-.2705.0301-.4061-.0293-.1417-.1115-.2663-.2295-.3474.1371.0653.244.1821.2981.3259.0561.1479.0705.3089.0417.4647-.028.1624-.0985.3141-.2039.4393-.056.0644-.1207.1204-.1923.1662-.0709.0453-.1468.0819-.2262.1088-.161.056-.3324.074-.5013.0529-.2371-.0344-.4607-.133-.6474-.2855-.0263-.0212-.0519-.0432-.0768-.0658-.1396-.1192-.2654-.2543-.3752-.4025-.0428-.0478-.0865-.095-.1319-.1405-.2285-.2438-.4982-.444-.7961-.5911-.2055-.0918-.4205-.1596-.641-.2021-.1109-.0234-.2231-.0404-.3352-.0547-.0122-.0013-.0355-.0054-.0646-.0105-.0936-.0166-.2463-.0436-.2732-.0182.3467-.3245.7247-.6127 1.1281-.8603.4143-.25.8591-.4435 1.323-.5755.481-.1377.984-.1769 1.48-.1154.2553.0312.5054.097.7436.1955.2495.1014.4799.2461.6807.4276.1987.1904.3594.4182.4731.6707.1025.2363.179.4835.2281.7371.0263.1364.0461.2863.0666.4414.0935.7071.2014 1.5229 1.002 1.6651.0508.01.1022.0174.1538.0221l.1596.004c.1097-.008.2187-.0239.3263-.0476.2227-.0533.4397-.1286.6479-.2249zm-6.1558-1.306c.0448.0535.091.1058.1383.1569-.023-.0259-.0458-.0519-.0686-.0779-.0232-.0264-.0464-.0528-.0697-.079z" fill-rule="evenodd"/></g></svg>