<svg fill="none" height="23" viewBox="0 0 23 23" width="23" xmlns="http://www.w3.org/2000/svg"><path d="m11.5 23c6.3513 0 11.5-5.1487 11.5-11.5 0-6.35127-5.1487-11.5-11.5-11.5-6.35127 0-11.5 5.14873-11.5 11.5 0 6.3513 5.14873 11.5 11.5 11.5z" fill="#2775ca"/><g fill="#fff"><path d="m9.39167 19.4542c0 .2875-.19167.3833-.47917.3833-3.54583-1.15-6.0375-4.4083-6.0375-8.2417 0-3.83331 2.49167-7.09165 6.0375-8.24165.2875-.09583.47917.09584.47917.38334v.67083c0 .19167-.09584.38333-.2875.47917-2.77917 1.05416-4.69584 3.64166-4.69584 6.70831 0 3.0667 2.0125 5.75 4.69584 6.7084.19166.0958.2875.2875.2875.4791z"/><path d="m12.2667 17.0583c0 .1917-.1917.3833-.3834.3833h-.7666c-.1917 0-.3834-.1916-.3834-.3833v-1.15c-1.5333-.1917-2.29997-1.0542-2.58747-2.3 0-.1917.09584-.3833.2875-.3833h.8625c.19167 0 .2875.0958.38334.2875.19166.6708.57503 1.2458 1.82083 1.2458.9583 0 1.6292-.4792 1.6292-1.2458 0-.7667-.3834-1.0542-1.725-1.2459-2.01253-.2875-2.97087-.8625-2.97087-2.49162 0-1.24584.95834-2.20417 2.29997-2.39584v-1.15c0-.19166.1917-.38333.3834-.38333h.7666c.1917 0 .3834.19167.3834.38333v1.15c1.15.19167 1.9166.8625 2.1083 1.91667 0 .19167-.0958.38333-.2875.38333h-.7667c-.1916 0-.2875-.09583-.3833-.2875-.1917-.67083-.6708-.95833-1.5333-.95833-.9584 0-1.43753.47917-1.43753 1.15 0 .67079.28753 1.05419 1.72503 1.24579 2.0125.2875 2.9708.8625 2.9708 2.4917 0 1.2458-.9583 2.3-2.3958 2.5875z"/><path d="m14.0875 19.8375c-.2875.0958-.4792-.0959-.4792-.3834v-.6708c0-.1916.0959-.3833.2875-.4791 2.7792-1.0542 4.6959-3.6417 4.6959-6.7084 0-3.06665-2.0125-5.74998-4.6959-6.70832-.1916-.09583-.2875-.2875-.2875-.47916v-.67084c0-.2875.1917-.38333.4792-.38333 3.45 1.15 6.0375 4.40833 6.0375 8.24165 0 3.8334-2.4917 7.0917-6.0375 8.2417z"/></g></svg>