<svg fill="none" height="32" viewBox="0 0 32 32" width="32" xmlns="http://www.w3.org/2000/svg"><path d="m16 32c8.8366 0 16-7.1634 16-16 0-8.83656-7.1634-16-16-16-8.83656 0-16 7.16344-16 16 0 8.8366 7.16344 16 16 16z" fill="#f60"/><path d="m15.97 5.23499c5.985 0 10.825 4.84001 10.825 10.82401-.004 1.1662-.1924 2.3245-.558 3.432h-3.226v-9.094l-7.04 7.04-7.04-7.04v9.094h-3.227c-.36528-1.1075-.55327-2.2658-.557-3.432 0-5.984 4.84-10.82401 10.824-10.82401zm-1.612 13.78501 1.642 1.615 1.613-1.614 3.051-3.08v5.72h4.547c-.9645 1.5862-2.3213 2.8972-3.9397 3.8066-1.6185.9094-3.4439 1.3865-5.3003 1.3854-3.902 0-7.334-2.082-9.24-5.192h4.546v-5.72l3.08 3.08z" fill="#fff"/></svg>