<svg fill="none" height="32" viewBox="0 0 32 32" width="32" xmlns="http://www.w3.org/2000/svg"><path d="m16 32c8.8366 0 16-7.1634 16-16 0-8.83656-7.1634-16-16-16-8.83656 0-16 7.16344-16 16 0 8.8366 7.16344 16 16 16z" fill="#23292f"/><path clip-rule="evenodd" d="m26 8h-2.9016l-4.5912 4.552c-.6685.6603-1.5693 1.0304-2.5078 1.0304s-1.8393-.3701-2.5077-1.0304l-4.58773-4.552h-2.90397l6.0409 5.9924c2.1883 2.1689 5.7338 2.1689 7.9206 0zm-20 16.1905h2.89258l4.61092-4.5669c.6659-.657 1.5633-1.0254 2.4983-1.0254.9349 0 1.8323.3684 2.4982 1.0254l4.6094 4.5669h2.8906l-6.0547-6.0002c-2.1801-2.1585-5.7121-2.1585-7.8906 0z" fill="#fff" fill-rule="evenodd"/></svg>