<svg xmlns="http://www.w3.org/2000/svg"  viewBox="0 0 50 50" width="50px" height="50px"><path d="M12 32H6v-6h6V32zM25.915 42.799c-.062 0-.122 0-.183-.001-3.63-.047-8.894-1.332-13.358-7.191-.283-.373-.271-.892.03-1.25s.81-.458 1.227-.244c.08.043 8.123 4.15 13.008 1.113 2.701-1.676 4.018-5.311 3.914-10.803-.01-.514.373-.952.884-1.012.131-.012 2.631-.272 5.312 1.854-.423-1.154-1.352-2.518-3.329-3.672-3.147-1.836-7.083-1.928-10.27-.244-1.497.792-2.947 1.897-4.31 3.288-.496.506-1.186.784-1.894.77-.697-.018-1.361-.328-1.822-.851-.768-.871-.846-2.147-.19-3.104l.502-.733c-1.37-1.512-2.631-4.458-.368-8.078 3.107-4.973 10.857-6.997 16.508-4.399 2.882-1.168 8.438-1.75 11.562 3.526.152.258.182.57.079.852-.102.281-.324.502-.606.602l-3.039 1.072c1.527 2.152 4.438 7.1 3.851 12.892-.464 4.565-3 8.636-7.539 12.097C32.9 41.554 29.367 42.799 25.915 42.799z"/></svg>