<svg xmlns="http://www.w3.org/2000/svg"  viewBox="0 0 100 100" width="200px" height="200px"><path d="M 50 14 C 30.129581 14 14 30.129595 14 50 C 14 69.870405 30.129581 86 50 86 C 69.870419 86 86 69.870405 86 50 C 86 30.129595 69.870419 14 50 14 z M 50 16 C 68.78954 16 84 31.210473 84 50 C 84 68.789527 68.78954 84 50 84 C 31.21046 84 16 68.789527 16 50 C 16 31.210473 31.21046 16 50 16 z M 50 19 C 32.884791 19 19 32.884791 19 50 C 19 67.115209 32.884791 81 50 81 C 67.115209 81 81 67.115209 81 50 C 81 40.904382 77.079076 32.716819 70.835938 27.046875 A 0.50005 0.50005 0 1 0 70.164062 27.787109 C 76.206924 33.275165 80 41.191618 80 50 C 80 66.574791 66.574791 80 50 80 C 33.425209 80 20 66.574791 20 50 C 20 33.425209 33.425209 20 50 20 C 53.630741 20 57.108062 20.645941 60.328125 21.826172 A 0.50018397 0.50018397 0 1 0 60.671875 20.886719 C 57.343938 19.66695 53.749259 19 50 19 z M 63.480469 22.140625 A 0.50005 0.50005 0 0 0 63.277344 23.091797 C 63.947092 23.423229 64.604492 23.779343 65.246094 24.158203 A 0.50005 0.50005 0 1 0 65.753906 23.296875 C 65.091508 22.905735 64.414908 22.53788 63.722656 22.195312 A 0.50005 0.50005 0 0 0 63.480469 22.140625 z M 67.507812 24.511719 A 0.50005 0.50005 0 0 0 67.457031 24.513672 A 0.50005 0.50005 0 0 0 67.212891 25.425781 C 67.545583 25.65906 67.873213 25.899999 68.195312 26.146484 A 0.50080937 0.50080937 0 1 0 68.804688 25.351562 C 68.470787 25.096048 68.130417 24.848143 67.787109 24.607422 A 0.50005 0.50005 0 0 0 67.507812 24.511719 z M 36.160156 38 C 35.142156 38 34.021484 38.303109 33.021484 38.912109 C 28.663484 41.567109 25.852969 47.626094 26.417969 52.246094 C 26.596969 53.712094 27.204469 55.317484 28.355469 56.396484 C 29.131469 57.115484 30.5345 58 32.1875 58 C 33.9775 58 35.489703 57.309125 36.845703 56.453125 C 37.764703 55.864125 38.534594 55.152828 39.183594 54.423828 C 39.639594 55.387828 40.586312 56.037109 41.570312 56.037109 C 42.341313 56.037109 43.065328 55.651641 43.611328 54.931641 C 43.775328 55.596641 44.241359 56.037109 45.068359 56.037109 C 45.674359 56.037109 46.969922 55.432156 48.169922 54.535156 L 48.044922 55.175781 C 48.011922 55.311781 48.000719 55.452797 48.011719 55.591797 C 48.048719 55.895797 48.259156 56.033203 48.535156 56.033203 C 49.113156 56.033203 49.954953 55.481047 50.126953 54.623047 L 50.388672 53.40625 C 50.726672 51.88425 52.953891 49.587891 53.587891 49.587891 C 53.669891 49.587891 53.730141 49.642906 53.744141 49.753906 C 53.791141 50.140906 53.038938 51.413938 52.710938 53.460938 C 52.648938 53.807937 52.636828 54.161719 52.673828 54.511719 C 52.784828 55.424719 53.326359 56.03125 54.318359 56.03125 C 55.176359 56.03125 57.0075 55.308906 58.3125 53.878906 C 58.4115 54.678906 58.583891 55.359109 58.837891 55.787109 C 58.946891 55.981109 59.193063 56.037109 59.414062 56.037109 C 59.690063 56.037109 60.075281 55.926078 60.488281 55.705078 C 61.480281 55.151078 62.776625 53.906375 64.015625 52.109375 C 64.181625 52.136375 64.316422 52.136719 64.482422 52.136719 C 64.978422 52.136719 65.532875 51.960578 66.046875 51.642578 C 65.852875 52.266578 65.781516 52.901187 65.853516 53.492188 C 66.028516 54.930187 67.265203 56.037109 68.533203 56.037109 C 69.276203 56.037109 70.002781 55.649984 70.550781 54.958984 C 70.717781 55.871984 71.305609 56.840875 72.724609 57.421875 C 72.814609 57.476875 72.924813 57.476562 73.007812 57.476562 C 73.283813 57.476562 73.451781 57.281547 73.425781 57.060547 C 73.415781 56.976547 73.34275 56.838516 73.21875 56.728516 C 72.87875 56.423516 72.511109 55.899656 72.412109 55.097656 C 72.365109 54.710656 72.391578 54.238547 72.517578 53.685547 C 72.826578 52.386547 72.891094 52.027328 72.871094 51.861328 C 72.831094 51.529328 72.593359 51.390625 72.318359 51.390625 C 71.739359 51.390625 70.958906 51.971438 70.753906 52.773438 C 70.434906 53.990437 69.570188 54.822266 68.992188 54.822266 C 68.276188 54.822266 67.906594 54.046141 67.808594 53.244141 C 67.564594 51.252141 68.833687 48.791016 70.679688 48.791016 C 71.230687 48.791016 71.808 49.012406 71.875 49.566406 C 71.98 50.423406 71.075141 50.230844 71.119141 50.589844 C 71.162141 50.948844 71.782313 51.058594 72.195312 51.058594 C 72.609313 51.058594 73.813625 50.781094 73.640625 49.371094 C 73.505625 48.265094 72.340234 47.740234 70.990234 47.740234 C 69.404234 47.740234 68.053859 48.544203 67.130859 49.658203 C 67.007859 49.729203 66.880188 49.853766 66.742188 50.009766 C 66.438187 50.368766 65.887875 50.701172 65.171875 50.701172 C 65.089875 50.701172 64.896484 50.673828 64.896484 50.673828 C 65.363484 49.760828 65.695312 48.819281 65.695312 47.988281 C 65.695312 46.661281 64.869937 45.998047 63.960938 45.998047 C 62.804937 45.998047 61.619141 47.022672 61.619141 49.013672 C 61.619141 50.203672 62.087063 51.171266 62.914062 51.697266 C 61.978063 53.247266 60.683234 54.519531 60.490234 54.519531 C 60.380234 54.519531 60.353172 54.409828 60.326172 54.298828 C 60.188172 53.773828 60.050781 52.749281 60.050781 52.113281 C 60.050781 50.979281 60.270594 49.843953 60.683594 48.626953 C 60.738594 48.489953 60.765625 48.351234 60.765625 48.240234 C 60.765625 47.909234 60.546188 47.742188 60.242188 47.742188 C 59.637188 47.742188 58.727812 48.432344 58.507812 49.152344 C 58.287812 49.843344 58.205078 50.783313 58.205078 51.945312 C 58.205078 52.159313 58.209797 52.372031 58.216797 52.582031 C 57.094797 54.064031 55.703484 54.595703 55.271484 54.595703 C 54.729484 54.595703 54.6255 54.147562 54.6875 53.851562 C 54.9795 52.456562 55.4205 50.835813 55.8125 49.757812 C 55.9955 49.231813 56.076969 48.761375 56.042969 48.484375 C 55.981969 47.986375 55.621344 47.738281 55.152344 47.738281 C 54.050344 47.738281 52.209391 48.899563 51.025391 50.476562 L 51.402344 48.767578 C 51.437344 48.602578 51.446594 48.463516 51.433594 48.353516 C 51.393594 48.021516 51.184203 47.882812 50.908203 47.882812 C 49.558203 47.882812 49.319313 48.568375 49.195312 49.234375 C 49.164312 49.394375 48.773078 51.425359 48.455078 53.068359 C 47.443078 53.976359 46.350734 54.566406 46.052734 54.566406 C 45.677734 54.566406 45.554922 54.268734 45.544922 54.052734 C 45.531922 53.804734 45.807047 52.607047 45.873047 52.248047 C 45.908047 52.083047 45.917297 51.944984 45.904297 51.833984 C 45.867297 51.529984 45.658469 51.392578 45.355469 51.392578 C 44.776469 51.392578 43.989109 51.945391 43.787109 52.775391 C 43.468109 53.992391 42.634641 54.822266 42.056641 54.822266 C 41.340641 54.822266 40.942656 54.048437 40.847656 53.273438 C 40.638656 51.557437 41.731844 48.791016 43.714844 48.791016 C 44.265844 48.791016 44.840203 48.984109 44.908203 49.537109 C 45.017203 50.422109 44.136594 50.199891 44.183594 50.587891 C 44.227594 50.946891 44.846422 51.058594 45.232422 51.058594 C 45.673422 51.058594 46.850641 50.781438 46.681641 49.398438 C 46.546641 48.291438 45.404344 47.738281 44.027344 47.738281 C 40.843344 47.738281 38.70425 50.869281 38.90625 53.363281 C 38.08225 54.323281 37.2625 54.909391 35.8125 55.650391 C 34.9815 56.065391 34.047016 56.314453 33.166016 56.314453 C 30.522016 56.314453 29.233563 53.880344 28.976562 51.777344 C 28.317562 46.383344 33.056328 38.96875 36.361328 38.96875 C 37.132328 38.96875 37.821219 39.638594 37.949219 40.683594 C 38.147219 42.309594 38.114594 43.462187 36.433594 44.867188 C 36.249594 45.020188 36.196016 45.269016 36.291016 45.416016 C 36.434016 45.636016 36.885828 45.657313 37.798828 45.195312 C 39.586828 44.293312 40.232156 42.900109 40.035156 41.287109 C 39.816156 39.497109 38.254156 38 36.160156 38 z M 63.298828 47.072266 C 63.601828 47.072266 63.986328 47.515719 63.986328 48.511719 C 63.986328 49.037719 63.877594 49.563844 63.683594 50.089844 C 63.187594 49.563844 62.802734 48.761328 62.802734 47.986328 C 62.802734 47.571328 62.939828 47.072266 63.298828 47.072266 z"/></svg>