<svg xmlns="http://www.w3.org/2000/svg" fill="currentColor" viewBox="0 0 80 80" width="240px" height="240px"><path d="M 20.925781 13 C 18.959781 13 17.114469 13.790609 15.730469 15.224609 C 14.287469 16.719609 13.500266 18.761078 13.572266 20.830078 C 13.678266 23.902078 13.576609 28.315766 12.474609 31.884766 C 11.396609 35.377766 9.7443438 37.112656 7.2773438 37.347656 C 6.7643438 37.396656 6.3730469 37.82775 6.3730469 38.34375 L 6.3730469 41.65625 C 6.3730469 42.17225 6.7633437 42.603344 7.2773438 42.652344 C 9.7443438 42.887344 11.396609 44.622234 12.474609 48.115234 C 13.576609 51.685234 13.678266 56.098922 13.572266 59.169922 C 13.500266 61.238922 14.287469 63.280391 15.730469 64.775391 C 17.114469 66.209391 18.959781 67 20.925781 67 L 59.078125 67 C 61.043125 67 62.889437 66.209391 64.273438 64.775391 C 65.716437 63.280391 66.503641 61.237922 66.431641 59.169922 C 66.325641 56.097922 66.42925 51.684234 67.53125 48.115234 C 68.60925 44.622234 70.258656 42.886344 72.722656 42.652344 C 73.235656 42.603344 73.626953 42.17225 73.626953 41.65625 L 73.626953 38.34375 C 73.626953 37.82775 73.236656 37.396656 72.722656 37.347656 C 70.259656 37.112656 68.60925 35.377766 67.53125 31.884766 C 66.42925 28.314766 66.325641 23.901078 66.431641 20.830078 C 66.503641 18.762078 65.716437 16.719609 64.273438 15.224609 C 62.889437 13.790609 61.043125 13 59.078125 13 L 20.925781 13 z M 20.925781 15 L 59.078125 15 C 60.496125 15 61.831938 15.572281 62.835938 16.613281 C 63.905937 17.719281 64.488547 19.233719 64.435547 20.761719 C 64.323547 23.988719 64.436094 28.638609 65.621094 32.474609 C 66.807094 36.316609 68.824906 38.572266 71.628906 39.197266 L 71.628906 40.804688 C 68.824906 41.429688 66.807094 43.685344 65.621094 47.527344 C 64.436094 51.363344 64.323547 56.013234 64.435547 59.240234 C 64.487547 60.768234 63.904938 62.280719 62.835938 63.386719 C 61.831937 64.426719 60.496125 65 59.078125 65 L 20.925781 65 C 19.507781 65 18.173922 64.428672 17.169922 63.388672 C 16.100922 62.281672 15.517312 60.769234 15.570312 59.240234 C 15.682313 56.013234 15.569766 51.363344 14.384766 47.527344 C 13.198766 43.685344 11.178094 41.428688 8.3710938 40.804688 L 8.3710938 39.195312 C 11.178094 38.571313 13.196813 36.314656 14.382812 32.472656 C 15.567812 28.636656 15.682313 23.986766 15.570312 20.759766 C 15.518312 19.230766 16.101922 17.718328 17.169922 16.611328 C 18.174922 15.571328 19.507781 15 20.925781 15 z M 19.046875 18 C 18.964844 17.995875 18.883281 18.002281 18.800781 18.019531 C 18.740781 18.030531 18.679141 18.050078 18.619141 18.080078 C 18.558141 18.100078 18.500453 18.129922 18.439453 18.169922 C 18.390453 18.209922 18.339063 18.249063 18.289062 18.289062 C 18.199063 18.389062 18.130078 18.489141 18.080078 18.619141 C 18.030078 18.739141 18 18.87 18 19 C 18 19.13 18.030078 19.260859 18.080078 19.380859 C 18.130078 19.500859 18.199063 19.609938 18.289062 19.710938 C 18.478063 19.899938 18.729 20 19 20 C 19.27 20 19.520937 19.899938 19.710938 19.710938 C 19.800937 19.609938 19.869922 19.500859 19.919922 19.380859 C 19.969922 19.260859 20 19.13 20 19 C 20 18.87 19.969922 18.739141 19.919922 18.619141 C 19.869922 18.499141 19.800937 18.389063 19.710938 18.289062 C 19.530938 18.115812 19.292969 18.012375 19.046875 18 z M 22.818359 18 C 22.268359 18 21.818359 18.45 21.818359 19 C 21.818359 19.55 22.269359 20 22.818359 20 C 23.369359 20 23.818359 19.55 23.818359 19 C 23.818359 18.45 23.369359 18 22.818359 18 z M 26.640625 18 C 26.080625 18 25.640625 18.45 25.640625 19 C 25.640625 19.55 26.080625 20 26.640625 20 C 27.190625 20 27.640625 19.55 27.640625 19 C 27.640625 18.45 27.190625 18 26.640625 18 z M 30.449219 18 C 29.898219 18 29.449219 18.45 29.449219 19 C 29.449219 19.55 29.898219 20 30.449219 20 C 31.009219 20 31.449219 19.55 31.449219 19 C 31.449219 18.45 31.009219 18 30.449219 18 z M 34.269531 18 C 33.719531 18 33.269531 18.45 33.269531 19 C 33.269531 19.55 33.719531 20 34.269531 20 C 34.819531 20 35.269531 19.55 35.269531 19 C 35.269531 18.45 34.819531 18 34.269531 18 z M 38.089844 18 C 37.539844 18 37.089844 18.45 37.089844 19 C 37.089844 19.55 37.539844 20 38.089844 20 C 38.639844 20 39.089844 19.55 39.089844 19 C 39.089844 18.45 38.639844 18 38.089844 18 z M 41.910156 18 C 41.359156 18 40.910156 18.45 40.910156 19 C 40.910156 19.55 41.359156 20 41.910156 20 C 42.460156 20 42.910156 19.55 42.910156 19 C 42.910156 18.45 42.460156 18 41.910156 18 z M 45.728516 18 C 45.168516 18 44.728516 18.45 44.728516 19 C 44.728516 19.55 45.169516 20 45.728516 20 C 46.279516 20 46.728516 19.55 46.728516 19 C 46.728516 18.45 46.279516 18 45.728516 18 z M 49.539062 18 C 48.989062 18 48.539062 18.45 48.539062 19 C 48.539062 19.55 48.989063 20 49.539062 20 C 50.099063 20 50.539062 19.55 50.539062 19 C 50.539062 18.45 50.099063 18 49.539062 18 z M 53.359375 18 C 52.809375 18 52.359375 18.45 52.359375 19 C 52.359375 19.55 52.810375 20 53.359375 20 C 53.920375 20 54.359375 19.55 54.359375 19 C 54.359375 18.45 53.920375 18 53.359375 18 z M 57.179688 18 C 56.629688 18 56.179688 18.45 56.179688 19 C 56.179688 19.55 56.629688 20 57.179688 20 C 57.729687 20 58.179688 19.55 58.179688 19 C 58.179688 18.45 57.729687 18 57.179688 18 z M 61.09375 18.005859 C 60.800547 17.976797 60.498313 18.079062 60.289062 18.289062 C 60.108063 18.478063 60 18.74 60 19 C 60 19.27 60.099063 19.520937 60.289062 19.710938 C 60.478062 19.899938 60.729 20 61 20 C 61.27 20 61.520938 19.899938 61.710938 19.710938 C 61.899937 19.520937 62 19.27 62 19 C 62 18.939 61.990469 18.869594 61.980469 18.808594 C 61.970469 18.739594 61.949922 18.679141 61.919922 18.619141 C 61.898922 18.558141 61.870078 18.500453 61.830078 18.439453 C 61.790078 18.390453 61.750937 18.339063 61.710938 18.289062 C 61.609938 18.199063 61.500859 18.130078 61.380859 18.080078 C 61.288359 18.040078 61.191484 18.015547 61.09375 18.005859 z M 29.982422 26.101562 L 29.982422 53.886719 L 41.416016 53.886719 C 44.387016 53.886719 46.852875 53.159109 48.546875 51.787109 C 50.242875 50.412109 51.140625 48.413906 51.140625 46.003906 C 51.139625 42.362906 48.554219 39.626688 44.699219 39.179688 L 44.699219 39.138672 C 47.533219 38.648672 49.744141 35.992406 49.744141 33.066406 C 49.744141 30.998406 48.950312 29.246 47.445312 28 C 45.945312 26.758 43.839469 26.101563 41.355469 26.101562 L 29.982422 26.101562 z M 34.507812 29.736328 L 40.296875 29.736328 C 43.471875 29.736328 45.220703 31.130156 45.220703 33.660156 C 45.220703 36.375156 43.143047 37.869141 39.373047 37.869141 L 34.507812 37.869141 L 34.507812 29.736328 z M 34.507812 41.275391 L 40.255859 41.275391 C 44.408859 41.275391 46.515625 42.774375 46.515625 45.734375 C 46.515625 48.689375 44.438719 50.251953 40.511719 50.251953 L 34.507812 50.251953 L 34.507812 41.275391 z M 19.048828 60 C 18.966016 59.995875 18.883281 60.002281 18.800781 60.019531 C 18.740781 60.030531 18.679141 60.050078 18.619141 60.080078 C 18.558141 60.100078 18.500453 60.129922 18.439453 60.169922 C 18.390453 60.199922 18.339063 60.249063 18.289062 60.289062 C 18.108063 60.478062 18 60.729 18 61 C 18 61.27 18.099063 61.520938 18.289062 61.710938 C 18.478063 61.899937 18.729 62 19 62 C 19.27 62 19.520937 61.899938 19.710938 61.710938 C 19.899938 61.510938 20 61.26 20 61 C 20 60.74 19.890937 60.478063 19.710938 60.289062 C 19.538438 60.115813 19.297266 60.012375 19.048828 60 z M 22.818359 60 C 22.268359 60 21.818359 60.45 21.818359 61 C 21.818359 61.55 22.269359 62 22.818359 62 C 23.369359 62 23.818359 61.55 23.818359 61 C 23.818359 60.45 23.369359 60 22.818359 60 z M 26.640625 60 C 26.080625 60 25.640625 60.45 25.640625 61 C 25.640625 61.55 26.080625 62 26.640625 62 C 27.190625 62 27.640625 61.55 27.640625 61 C 27.640625 60.45 27.190625 60 26.640625 60 z M 30.449219 60 C 29.898219 60 29.449219 60.45 29.449219 61 C 29.449219 61.55 29.898219 62 30.449219 62 C 31.009219 62 31.449219 61.55 31.449219 61 C 31.449219 60.45 31.009219 60 30.449219 60 z M 34.269531 60 C 33.719531 60 33.269531 60.45 33.269531 61 C 33.269531 61.55 33.719531 62 34.269531 62 C 34.819531 62 35.269531 61.55 35.269531 61 C 35.269531 60.45 34.819531 60 34.269531 60 z M 38.089844 60 C 37.539844 60 37.089844 60.45 37.089844 61 C 37.089844 61.55 37.539844 62 38.089844 62 C 38.639844 62 39.089844 61.55 39.089844 61 C 39.089844 60.45 38.639844 60 38.089844 60 z M 41.910156 60 C 41.359156 60 40.910156 60.45 40.910156 61 C 40.910156 61.55 41.359156 62 41.910156 62 C 42.460156 62 42.910156 61.55 42.910156 61 C 42.910156 60.45 42.460156 60 41.910156 60 z M 45.728516 60 C 45.168516 60 44.728516 60.45 44.728516 61 C 44.728516 61.55 45.169516 62 45.728516 62 C 46.279516 62 46.728516 61.55 46.728516 61 C 46.728516 60.45 46.279516 60 45.728516 60 z M 49.539062 60 C 48.989062 60 48.539062 60.45 48.539062 61 C 48.539062 61.55 48.989063 62 49.539062 62 C 50.099063 62 50.539062 61.55 50.539062 61 C 50.539062 60.45 50.099063 60 49.539062 60 z M 53.359375 60 C 52.809375 60 52.359375 60.45 52.359375 61 C 52.359375 61.55 52.810375 62 53.359375 62 C 53.920375 62 54.359375 61.55 54.359375 61 C 54.359375 60.45 53.920375 60 53.359375 60 z M 57.179688 60 C 56.629688 60 56.179688 60.45 56.179688 61 C 56.179688 61.55 56.629688 62 57.179688 62 C 57.729687 62 58.179688 61.55 58.179688 61 C 58.179688 60.45 57.729687 60 57.179688 60 z M 61.09375 60.007812 C 60.800547 59.980859 60.498313 60.085813 60.289062 60.289062 C 60.199063 60.389062 60.130078 60.499141 60.080078 60.619141 C 60.020078 60.739141 60 60.87 60 61 C 60 61.13 60.019359 61.260859 60.068359 61.380859 C 60.129359 61.500859 60.199063 61.609938 60.289062 61.710938 C 60.478062 61.899937 60.729 62 61 62 C 61.27 62 61.520938 61.899938 61.710938 61.710938 C 61.800937 61.609938 61.869922 61.500859 61.919922 61.380859 C 61.969922 61.260859 62 61.13 62 61 C 62 60.87 61.969922 60.739141 61.919922 60.619141 C 61.869922 60.499141 61.800938 60.389063 61.710938 60.289062 C 61.609938 60.199063 61.500859 60.130078 61.380859 60.080078 C 61.288359 60.040078 61.191484 60.016797 61.09375 60.007812 z"/></svg>
