<?xml version="1.0"?><svg xmlns="http://www.w3.org/2000/svg"  viewBox="0 0 64 64" width="64px" height="64px">    <path d="M 53.066406 6.0019531 C 52.601406 5.9769531 52.193781 6.2525469 52.050781 6.6855469 C 52.046781 6.6985469 51.622469 7.9681406 50.980469 9.6191406 C 48.761469 15.319141 41.155109 19.745828 34.787109 21.173828 C 33.526109 20.431828 32.065 20 30.5 20 C 28.404 20 26.486906 20.766297 25.003906 22.029297 C 24.959906 22.022297 24.921 22.001 24.875 22 C 18.649 21.871 13.89075 14.536891 13.84375 14.462891 C 13.60375 14.087891 13.146703 13.919062 12.720703 14.039062 C 12.293703 14.164062 12 14.556 12 15 L 12 25 C 12 25.014 12.006812 25.025063 12.007812 25.039062 C 11.412812 25.980062 11.053719 27.081625 11.011719 28.265625 C 8.2787187 25.976625 4.8127812 25.301422 2.4257812 26.857422 C 1.2097813 27.650422 0.41214063 28.896938 0.11914062 30.460938 C -0.30685937 32.735937 0.38839063 35.346047 2.0253906 37.623047 C 4.0113906 40.388047 6.9628906 41.986328 9.5878906 41.986328 C 9.6448906 41.986328 9.6998594 41.976609 9.7558594 41.974609 C 9.7758594 41.993609 9.7865938 42.019109 9.8085938 42.037109 C 11.509594 43.406109 14.6025 45.165625 17.6875 46.515625 C 22.9795 48.831625 27.969203 50.003906 32.533203 50.003906 C 32.695203 50.003906 32.858531 50.003 33.019531 50 C 36.878531 49.929 40.267281 49.107313 43.113281 47.570312 C 43.772281 47.945312 44.450531 48.304906 45.144531 48.628906 C 48.523531 50.365906 51.635672 51.366625 53.013672 51.765625 C 53.009672 51.844625 53 51.919 53 52 C 53 56.012 56.632156 56.914219 59.285156 57.574219 C 60.512156 57.879219 61.780969 58.195031 62.292969 58.707031 C 62.483969 58.897031 62.739 59 63 59 C 63.113 59 63.226938 58.981406 63.335938 58.941406 C 63.699937 58.811406 63.955141 58.484609 63.994141 58.099609 C 64.020141 57.839609 64.601187 51.691875 61.867188 48.671875 C 60.863188 47.562875 59.562 47 58 47 C 57.819 47 57.628547 47.018875 57.435547 47.046875 C 55.851547 45.585875 53.117969 43.916219 49.292969 42.074219 C 52.138969 38.097219 55.154906 30.796281 55.003906 17.738281 L 55 17.310547 C 55 12.255547 54.024422 7.0344531 53.982422 6.8144531 C 53.898422 6.3674531 53.520406 6.0339531 53.066406 6.0019531 z M 52.578125 10.974609 C 52.798125 12.812609 53 15.097547 53 17.310547 L 53.003906 17.761719 C 53.152906 30.659719 50.161359 37.59075 47.443359 41.21875 C 46.565359 40.82675 45.693844 40.456906 44.839844 40.128906 C 44.878844 40.085906 44.916734 40.042 44.927734 40 C 45.637734 37.168 40.927734 35 40.927734 35 C 40.927734 35 41.833984 36.473437 41.833984 38.023438 C 41.832984 40.000437 25.927734 40 25.927734 40 C 25.927734 40 31.358922 42.129313 36.419922 42.820312 C 36.832922 43.179313 38.662703 44.743891 41.095703 46.337891 C 38.755703 47.391891 36.086469 47.943 32.980469 48 C 28.573469 48.09 23.701281 46.965594 18.488281 44.683594 C 16.208281 43.685594 13.881375 42.427172 12.234375 41.326172 C 12.347375 41.264172 12.464266 41.211625 12.572266 41.140625 C 13.788266 40.347625 14.585906 39.102109 14.878906 37.537109 C 15.065906 36.538109 15.024922 35.474344 14.794922 34.402344 C 15.620922 34.783344 16.534 35 17.5 35 C 19.717 35 21.677562 33.881641 22.851562 32.181641 C 24.226562 35.026641 27.133 37 30.5 37 C 35.187 37 39 33.187 39 28.5 C 39 26.275 38.133516 24.253328 36.728516 22.736328 C 42.881516 20.989328 49.940125 16.802609 52.578125 10.974609 z M 14 17.945312 C 15.168 19.284313 16.847297 20.92125 18.904297 22.15625 C 18.451297 22.05625 17.983 22 17.5 22 C 16.211 22 15.012 22.38125 14 23.03125 L 14 17.945312 z M 49.757812 21.976562 L 47.757812 21.990234 C 47.205813 21.994234 46.759672 22.446047 46.763672 22.998047 C 46.767672 23.551047 47.218484 23.994234 47.771484 23.990234 L 49.771484 23.976562 C 50.323484 23.972562 50.767672 23.522703 50.763672 22.970703 C 50.759672 22.418703 50.309812 21.972562 49.757812 21.976562 z M 30.5 22 C 34.084 22 37 24.916 37 28.5 C 37 29.916 36.539578 31.223969 35.767578 32.292969 C 35.907578 31.884969 36 31.455 36 31 C 36 28.791 34.209 27 32 27 C 29.791 27 28 28.791 28 31 C 28 32.991 29.459281 34.628547 31.363281 34.935547 C 31.080281 34.973547 30.793 35 30.5 35 C 26.916 35 24 32.084 24 28.5 C 24 24.916 26.916 22 30.5 22 z M 21.496094 23.384766 C 22.105094 23.595766 22.737672 23.753375 23.388672 23.859375 C 23.188672 24.165375 23.011562 24.486359 22.851562 24.818359 C 22.475563 24.273359 22.016094 23.791766 21.496094 23.384766 z M 17.5 24 C 19.981 24 22 26.019 22 28.5 C 22 28.782 21.967969 29.056219 21.917969 29.324219 C 21.609969 27.994219 20.423 27 19 27 C 17.343 27 16 28.343 16 30 C 16 31.423 16.994219 32.609969 18.324219 32.917969 C 18.056219 32.967969 17.782 33 17.5 33 C 15.019 33 13 30.981 13 28.5 C 13 26.019 15.019 24 17.5 24 z M 47.316406 26.841797 C 46.773406 26.742797 46.253297 27.103484 46.154297 27.646484 C 46.055297 28.189484 46.414031 28.709594 46.957031 28.808594 L 48.925781 29.167969 C 49.468781 29.266969 49.990844 28.906281 50.089844 28.363281 C 50.188844 27.820281 49.828156 27.300172 49.285156 27.201172 L 47.316406 26.841797 z M 19 28 C 19.552 28 20 28.448 20 29 C 20 29.552 19.552 30 19 30 C 18.448 30 18 29.552 18 29 C 18 28.448 18.448 28 19 28 z M 31.5 28 C 32.328 28 33 28.672 33 29.5 C 33 30.328 32.328 31 31.5 31 C 30.672 31 30 30.328 30 29.5 C 30 28.672 30.672 28 31.5 28 z M 5.4257812 28.005859 C 7.3987812 28.005859 9.7645625 29.334969 11.351562 31.542969 L 11.351562 31.544922 C 12.650562 33.352922 13.235062 35.454922 12.914062 37.169922 C 12.782063 37.877922 12.426422 38.851797 11.482422 39.466797 C 9.3884219 40.831797 5.8014375 39.452078 3.6484375 36.455078 C 2.3484375 34.646078 1.7649375 32.543125 2.0859375 30.828125 C 2.2179375 30.121125 2.5735781 29.148203 3.5175781 28.533203 C 4.0685781 28.174203 4.7217813 28.005859 5.4257812 28.005859 z M 45.939453 31.1875 C 45.549688 31.184688 45.177172 31.410766 45.013672 31.791016 C 44.794672 32.298016 45.028156 32.886469 45.535156 33.105469 L 47.373047 33.896484 C 47.880047 34.115484 48.4695 33.882 48.6875 33.375 C 48.9065 32.868 48.671062 32.278547 48.164062 32.060547 L 46.328125 31.269531 C 46.201375 31.214781 46.069375 31.188437 45.939453 31.1875 z M 41.279297 41.019531 C 43.200297 41.594531 45.341094 42.423641 47.496094 43.431641 C 48.674094 43.981641 49.747469 44.516156 50.730469 45.035156 C 50.002469 45.689156 49.248734 46.715375 49.052734 48.234375 C 48.099734 47.837375 47.071438 47.371031 46.023438 46.832031 C 43.017437 45.428031 40.173125 43.298188 38.703125 42.117188 C 39.453125 41.291187 40.466297 41.070531 41.279297 41.019531 z M 52.638672 46.095703 C 53.705672 46.722703 54.597547 47.316141 55.310547 47.869141 C 54.586547 48.340141 53.937672 48.994172 53.513672 49.826172 C 52.941672 49.658172 52.066953 49.382141 51.001953 48.994141 C 51.004953 47.285141 52.087672 46.423703 52.638672 46.095703 z M 58 49 C 58.986 49 59.765813 49.330719 60.382812 50.011719 C 61.714813 51.481719 62.046453 54.324781 62.064453 56.300781 C 61.368453 56.030781 60.580531 55.836766 59.769531 55.634766 C 56.802531 54.896766 55 54.283 55 52 C 55 50.003 56.923 49 58 49 z"/></svg>