<svg xmlns="http://www.w3.org/2000/svg"  viewBox="0 0 48 48" width="48px" height="48px" baseProfile="basic"><linearGradient id="hqBdiw7hWbh_bf9we5wHOa" x1="18.6" x2="29.117" y1="10.403" y2="42.736" gradientUnits="userSpaceOnUse"><stop offset="0" stop-color="#f44f5a"/><stop offset=".443" stop-color="#ee3d4a"/><stop offset="1" stop-color="#e52030"/></linearGradient><path fill="url(#hqBdiw7hWbh_bf9we5wHOa)" d="M36.277,15.251C39.276,18.384,41,22.571,41,27c0,9.374-7.626,17-17,17S7,36.374,7,27	c0-8.518,8.812-15.984,15.894-21.983c0.379-0.321,0.74-0.629,1.106-0.941v5.25C17.865,14.559,11,20.837,11,27	c0,7.168,5.832,13,13,13s13-5.832,13-13c0-3.428-1.363-6.657-3.709-9.062L36.277,15.251z M30,10c-1.105,0-2,0.895-2,2s0.895,2,2,2	s2-0.895,2-2S31.105,10,30,10z"/></svg>