<svg xmlns="http://www.w3.org/2000/svg"  viewBox="0 0 48 48" width="144px" height="144px"><path d="M 24.0625 2 A 1.50015 1.50015 0 0 0 23.912109 2.0019531 A 1.50015 1.50015 0 0 0 23.498047 2.0859375 L 4.3378906 8.8925781 A 1.50015 1.50015 0 0 0 3.3496094 10.478516 L 6.2714844 35.714844 A 1.50015 1.50015 0 0 0 7.0371094 36.855469 L 23.275391 45.8125 A 1.50015 1.50015 0 0 0 24.724609 45.8125 L 40.962891 36.855469 A 1.50015 1.50015 0 0 0 41.728516 35.714844 L 44.650391 10.478516 A 1.50015 1.50015 0 0 0 43.662109 8.8925781 L 24.501953 2.0859375 A 1.50015 1.50015 0 0 0 24.0625 2 z M 24 5.0917969 L 41.533203 11.320312 L 38.835938 34.601562 L 24 42.787109 L 9.1621094 34.601562 L 6.4667969 11.320312 L 24 5.0917969 z M 17.775391 10.693359 L 14.916016 13.550781 L 19.205078 13.958984 L 20.634766 10.693359 L 17.775391 10.693359 z M 21.248047 10.693359 L 19.619141 14.556641 L 12.261719 13.960938 L 13.486328 19.064453 L 22.269531 22.330078 L 22.269531 22.332031 L 22.472656 22.332031 L 22.472656 22.330078 L 23.494141 22.330078 L 23.494141 10.693359 L 21.248047 10.693359 z M 24.310547 10.693359 L 24.310547 22.330078 L 25.537109 22.330078 L 25.537109 22.332031 L 25.740234 22.332031 L 25.740234 22.330078 L 34.523438 19.064453 L 35.748047 13.960938 L 28.185547 14.556641 L 26.558594 10.693359 L 24.310547 10.693359 z M 27.169922 10.693359 L 28.601562 13.958984 L 32.890625 13.550781 L 30.029297 10.693359 L 27.169922 10.693359 z M 13.689453 19.880859 L 13.689453 26.822266 L 18.591797 30.90625 L 18.591797 24.576172 L 20.021484 22.535156 L 18.183594 22.943359 L 15.9375 20.697266 L 13.689453 19.880859 z M 34.115234 19.880859 L 31.869141 20.697266 L 29.621094 22.943359 L 27.783203 22.535156 L 29.214844 24.576172 L 29.214844 30.90625 L 34.115234 26.822266 L 34.115234 19.880859 z M 20.814453 22.505859 L 19.185547 24.960938 L 19.183594 24.960938 L 19.183594 34.166016 L 20.404297 36.007812 L 21.830078 37.439453 L 25.904297 37.439453 L 27.330078 36.007812 L 28.552734 34.166016 L 28.552734 24.960938 L 26.923828 22.505859 L 25.904297 23.119141 L 21.832031 23.119141 L 20.814453 22.505859 z M 15.9375 29.476562 L 15.9375 32.130859 L 18.591797 34.785156 L 18.591797 31.722656 L 15.9375 29.476562 z M 31.867188 29.476562 L 29.212891 31.722656 L 29.212891 34.785156 L 31.867188 32.130859 L 31.867188 29.476562 z"/></svg>