<svg xmlns="http://www.w3.org/2000/svg" fill="currentColor"  viewBox="0 0 48 48" width="144px" height="144px"><path d="M 24 4 C 12.954 4 4 12.954 4 24 C 4 35.046 12.954 44 24 44 C 35.046 44 44 35.046 44 24 C 44 12.954 35.046 4 24 4 z M 24 7 C 33.374 7 41 14.626 41 24 C 41 33.374 33.374 41 24 41 C 14.626 41 7 33.374 7 24 C 7 14.626 14.626 7 24 7 z M 29.050781 11.023438 C 28.993797 11.025062 28.935516 11.047906 28.884766 11.097656 L 14.685547 25.070312 C 14.526547 25.227313 14.636375 25.498047 14.859375 25.498047 L 24.199219 25.498047 C 24.401219 25.498047 24.519297 25.726578 24.404297 25.892578 L 17.279297 36.15625 C 17.109297 36.40125 17.432344 36.685375 17.652344 36.484375 L 33.525391 21.933594 C 33.693391 21.779594 33.585422 21.5 33.357422 21.5 L 24.474609 21.5 C 24.287609 21.5 24.167906 21.301766 24.253906 21.134766 L 29.283203 11.390625 C 29.380703 11.200875 29.221734 11.018563 29.050781 11.023438 z"/></svg>
