<svg xmlns="http://www.w3.org/2000/svg"  viewBox="0 0 80 80" width="80px" height="80px"><path d="M 14 10 C 11.802666 10 10 11.802666 10 14 L 10 66 C 10 68.197334 11.802666 70 14 70 L 66 70 C 68.197334 70 70 68.197334 70 66 L 70 14 C 70 11.802666 68.197334 10 66 10 L 14 10 z M 14 12 L 66 12 C 67.116666 12 68 12.883334 68 14 L 68 66 C 68 67.116666 67.116666 68 66 68 L 14 68 C 12.883334 68 12 67.116666 12 66 L 12 14 C 12 12.883334 12.883334 12 14 12 z M 18 17 A 1 1 0 0 0 17 18 A 1 1 0 0 0 18 19 A 1 1 0 0 0 19 18 A 1 1 0 0 0 18 17 z M 22 17 A 1 1 0 0 0 21 18 A 1 1 0 0 0 22 19 A 1 1 0 0 0 23 18 A 1 1 0 0 0 22 17 z M 26 17 A 1 1 0 0 0 25 18 A 1 1 0 0 0 26 19 A 1 1 0 0 0 27 18 A 1 1 0 0 0 26 17 z M 30 17 A 1 1 0 0 0 29 18 A 1 1 0 0 0 30 19 A 1 1 0 0 0 31 18 A 1 1 0 0 0 30 17 z M 34 17 A 1 1 0 0 0 33 18 A 1 1 0 0 0 34 19 A 1 1 0 0 0 35 18 A 1 1 0 0 0 34 17 z M 38 17 A 1 1 0 0 0 37 18 A 1 1 0 0 0 38 19 A 1 1 0 0 0 39 18 A 1 1 0 0 0 38 17 z M 42 17 A 1 1 0 0 0 41 18 A 1 1 0 0 0 42 19 A 1 1 0 0 0 43 18 A 1 1 0 0 0 42 17 z M 46 17 A 1 1 0 0 0 45 18 A 1 1 0 0 0 46 19 A 1 1 0 0 0 47 18 A 1 1 0 0 0 46 17 z M 50 17 A 1 1 0 0 0 49 18 A 1 1 0 0 0 50 19 A 1 1 0 0 0 51 18 A 1 1 0 0 0 50 17 z M 54 17 A 1 1 0 0 0 53 18 A 1 1 0 0 0 54 19 A 1 1 0 0 0 55 18 A 1 1 0 0 0 54 17 z M 58 17 A 1 1 0 0 0 57 18 A 1 1 0 0 0 58 19 A 1 1 0 0 0 59 18 A 1 1 0 0 0 58 17 z M 62 17 A 1 1 0 0 0 61 18 A 1 1 0 0 0 62 19 A 1 1 0 0 0 63 18 A 1 1 0 0 0 62 17 z M 18 21 A 1 1 0 0 0 17 22 A 1 1 0 0 0 18 23 A 1 1 0 0 0 19 22 A 1 1 0 0 0 18 21 z M 62 21 A 1 1 0 0 0 61 22 A 1 1 0 0 0 62 23 A 1 1 0 0 0 63 22 A 1 1 0 0 0 62 21 z M 18 25 A 1 1 0 0 0 17 26 A 1 1 0 0 0 18 27 A 1 1 0 0 0 19 26 A 1 1 0 0 0 18 25 z M 62 25 A 1 1 0 0 0 61 26 A 1 1 0 0 0 62 27 A 1 1 0 0 0 63 26 A 1 1 0 0 0 62 25 z M 18 29 A 1 1 0 0 0 17 30 A 1 1 0 0 0 18 31 A 1 1 0 0 0 19 30 A 1 1 0 0 0 18 29 z M 33.484375 29 L 26 51 L 29.017578 51 L 30.953125 45 L 38.990234 45 L 40.925781 51 L 44 51 L 36.515625 29 L 33.484375 29 z M 62 29 A 1 1 0 0 0 61 30 A 1 1 0 0 0 62 31 A 1 1 0 0 0 63 30 A 1 1 0 0 0 62 29 z M 49.5 30 C 48.658 30 48 30.656859 48 31.505859 C 48 32.342859 48.658 33 49.5 33 C 50.342 33 51 32.342859 51 31.505859 C 51 30.656859 50.342 30 49.5 30 z M 34.865234 32.75 L 35.09375 32.75 L 38.070312 42 L 31.873047 42 L 34.865234 32.75 z M 18 33 A 1 1 0 0 0 17 34 A 1 1 0 0 0 18 35 A 1 1 0 0 0 19 34 A 1 1 0 0 0 18 33 z M 62 33 A 1 1 0 0 0 61 34 A 1 1 0 0 0 62 35 A 1 1 0 0 0 63 34 A 1 1 0 0 0 62 33 z M 48 35 L 48 51 L 51 51 L 51 35 L 48 35 z M 18 37 A 1 1 0 0 0 17 38 A 1 1 0 0 0 18 39 A 1 1 0 0 0 19 38 A 1 1 0 0 0 18 37 z M 62 37 A 1 1 0 0 0 61 38 A 1 1 0 0 0 62 39 A 1 1 0 0 0 63 38 A 1 1 0 0 0 62 37 z M 18 41 A 1 1 0 0 0 17 42 A 1 1 0 0 0 18 43 A 1 1 0 0 0 19 42 A 1 1 0 0 0 18 41 z M 62 41 A 1 1 0 0 0 61 42 A 1 1 0 0 0 62 43 A 1 1 0 0 0 63 42 A 1 1 0 0 0 62 41 z M 18 45 A 1 1 0 0 0 17 46 A 1 1 0 0 0 18 47 A 1 1 0 0 0 19 46 A 1 1 0 0 0 18 45 z M 62 45 A 1 1 0 0 0 61 46 A 1 1 0 0 0 62 47 A 1 1 0 0 0 63 46 A 1 1 0 0 0 62 45 z M 18 49 A 1 1 0 0 0 17 50 A 1 1 0 0 0 18 51 A 1 1 0 0 0 19 50 A 1 1 0 0 0 18 49 z M 62 49 A 1 1 0 0 0 61 50 A 1 1 0 0 0 62 51 A 1 1 0 0 0 63 50 A 1 1 0 0 0 62 49 z M 18 53 A 1 1 0 0 0 17 54 A 1 1 0 0 0 18 55 A 1 1 0 0 0 19 54 A 1 1 0 0 0 18 53 z M 62 53 A 1 1 0 0 0 61 54 A 1 1 0 0 0 62 55 A 1 1 0 0 0 63 54 A 1 1 0 0 0 62 53 z M 18 57 A 1 1 0 0 0 17 58 A 1 1 0 0 0 18 59 A 1 1 0 0 0 19 58 A 1 1 0 0 0 18 57 z M 62 57 A 1 1 0 0 0 61 58 A 1 1 0 0 0 62 59 A 1 1 0 0 0 63 58 A 1 1 0 0 0 62 57 z M 18 61 A 1 1 0 0 0 17 62 A 1 1 0 0 0 18 63 A 1 1 0 0 0 19 62 A 1 1 0 0 0 18 61 z M 22 61 A 1 1 0 0 0 21 62 A 1 1 0 0 0 22 63 A 1 1 0 0 0 23 62 A 1 1 0 0 0 22 61 z M 26 61 A 1 1 0 0 0 25 62 A 1 1 0 0 0 26 63 A 1 1 0 0 0 27 62 A 1 1 0 0 0 26 61 z M 30 61 A 1 1 0 0 0 29 62 A 1 1 0 0 0 30 63 A 1 1 0 0 0 31 62 A 1 1 0 0 0 30 61 z M 34 61 A 1 1 0 0 0 33 62 A 1 1 0 0 0 34 63 A 1 1 0 0 0 35 62 A 1 1 0 0 0 34 61 z M 38 61 A 1 1 0 0 0 37 62 A 1 1 0 0 0 38 63 A 1 1 0 0 0 39 62 A 1 1 0 0 0 38 61 z M 42 61 A 1 1 0 0 0 41 62 A 1 1 0 0 0 42 63 A 1 1 0 0 0 43 62 A 1 1 0 0 0 42 61 z M 46 61 A 1 1 0 0 0 45 62 A 1 1 0 0 0 46 63 A 1 1 0 0 0 47 62 A 1 1 0 0 0 46 61 z M 50 61 A 1 1 0 0 0 49 62 A 1 1 0 0 0 50 63 A 1 1 0 0 0 51 62 A 1 1 0 0 0 50 61 z M 54 61 A 1 1 0 0 0 53 62 A 1 1 0 0 0 54 63 A 1 1 0 0 0 55 62 A 1 1 0 0 0 54 61 z M 58 61 A 1 1 0 0 0 57 62 A 1 1 0 0 0 58 63 A 1 1 0 0 0 59 62 A 1 1 0 0 0 58 61 z M 62 61 A 1 1 0 0 0 61 62 A 1 1 0 0 0 62 63 A 1 1 0 0 0 63 62 A 1 1 0 0 0 62 61 z"/></svg>