<svg id="ehkN9n4EldF1" fill="currentColor"  class="h-10 w-10" xmlns="http://www.w3.org/2000/svg" xmlns:xlink="http://www.w3.org/1999/xlink"
            viewBox="0 0 360 360" shape-rendering="geometricPrecision" text-rendering="geometricPrecision">
            <defs>
              <linearGradient id="ehkN9n4EldF6-fill" x1="0" y1="0.5" x2="1" y2="0.5" spreadMethod="pad"
                gradientUnits="objectBoundingBox" gradientTransform="translate(0 0)">
                <stop id="ehkN9n4EldF6-fill-0" offset="0%" stop-color="#fd2155" />
                <stop id="ehkN9n4EldF6-fill-1" offset="100%" stop-color="#02deaa" />
              </linearGradient>
              <linearGradient id="ehkN9n4EldF7-fill" x1="0" y1="0.5" x2="1" y2="0.5" spreadMethod="pad"
                gradientUnits="objectBoundingBox" gradientTransform="translate(0 0)">
                <stop id="ehkN9n4EldF7-fill-0" offset="0%" stop-color="#fd2155" />
                <stop id="ehkN9n4EldF7-fill-1" offset="100%" stop-color="#02deaa" />
              </linearGradient>
            </defs>
            <g transform="matrix(1.49 0 0 1.67-43.508866-121.095124)">
              <g transform="matrix(.099999-.00048-.00048-.099999-65.13572 361.213002)">
                <path
                  d="M1062,2129c2-3,27-47,57-97l54-92h174c95,0,173-3,173-7c0-5-105-113-232-240l-233-233h165h165l293,293c291,291,292,292,292,335v42l-422,1c-233,0-438,1-456,2-17,1-31-1-30-4Z"
                  fill="currentColor" />
                <path
                  d="M2160,1955c-96-96-178-174-182-175-5,0-8,42-8,92v93l-100-100-100-100l2-150l3-150l110-3l110-3l158,163l157,162v-157-157h115h115v330v330h-102-103l-175-175Z"
                  fill="currentColor" />
              </g>
              <path
                d="M199.5,146.67749L330.313644,147.1L259.022487,213l-.300806-33l15.641941-13.3L254,166.7v-20.02251h-23L210.59263,166.7L199.5,146.67749Z"
                transform="translate(-64.27189 0.711255)" fill="url(#ehkN9n4EldF6-fill)" stroke="#3f5787"
                stroke-width="0.72" />
              <path d="M330.313644,213l-35.194369-31.4-16.243554,15.7L330.313644,213"
                transform="translate(-64.271888-1.6)" fill="url(#ehkN9n4EldF7-fill)" stroke="#3f5787"
                stroke-width="0.72" />
            </g>
</svg>
