<?xml version='1.0' encoding='utf-8'?>
<svg xmlns="http://www.w3.org/2000/svg" width="3650" height="950" version="1.1" viewBox="0 0 965.73 251.35"> <g transform="translate(0 -45.646)"> <path d="m477.43 49.279c2.0053 0 4.1851 4.1851 11.509 7.6726 7.3238 3.4875 17.089 6.2776 20.925 8.3701 3.8363 2.0925 6.2776 3.8363 12.206 3.4875 5.9288-0.34876 14.299 3.8363 18.135 6.2776 3.8363 2.4413 1.9026-1.4473 9.5474 3.7314 7.6448 5.1787 7.6448 6.4118 9.371 6.6584 1.7262 0.24661 3.2059 4.6855 4.9321 4.9321 1.7262 0.24661 5.4254 1.7262 8.3846 3.6991 2.9593 1.9729 7.6448 3.2059 9.6176 2.2195 1.9729-0.98642 3.4525 0 9.1244 4.4389 5.6719 4.4389 10.111 7.3982 18.495 11.097 8.3846 3.6991 12.824 7.8914 17.262 8.3846 4.4389 0.4932 3.2059-0.98642 10.851-0.24661 7.6448 0.73981 9.8643 2.4661 13.81 1.233 3.9457-1.233 6.905-3.2059 10.604-1.4796 3.6991 1.7262 12.824 10.111 19.235 14.303 6.4118 4.1923 6.905-0.24661 11.591 1.7262 4.6855 1.9728 2.9593-0.73983 9.1244 0.73982 6.1652 1.4796 11.591-0.73982 13.563-2.7127 1.9729-1.9728 6.6584-0.24659 10.357-0.73981 3.6991-0.49322 6.1652-3.6991 9.1244-3.6991 2.9593 0 1.9728-0.24661 4.6856-2.7127 2.7127-2.4661 12.824-10.851 15.783-10.851 2.9593 0 12.577 2.9593 15.29 4.1923 2.7126 1.233 7.6448 3.4525 11.097 4.1923 3.4525 0.73982 6.4118 1.4796 7.6448 1.7262 1.233 0.24661 5.672 8.6312 11.59 14.057 5.9186 5.4253 15.29 17.016 18.249 21.208 2.9592 4.1923 6.6584 6.1652 8.8778 5.9186 2.2195-0.24661 2.2195 0.24659 5.4254 3.6991 3.2059 3.4525 10.111 11.591 12.824 11.837 2.7127 0.24659 8.3846 2.4661 10.111 5.6719 1.7262 3.2059 7.8914 7.8914 9.371 8.138 1.4796 0.24661 15.536 3.2059 22.441 8.138 6.905 4.9321 23.921 31.072 25.647 31.072s33.292 38.964 39.704 44.143c6.4118 5.1787 9.371 13.563 9.371 13.563h-960.89s15.396-37.977 22.794-42.91c7.3982-4.9321 20.715-13.81 26.634-14.796 5.9186-0.98643 10.357-12.33 14.796-13.81 4.4389-1.4796 29.1-9.371 31.072-13.81 1.9728-4.4389 9.8643-5.4254 11.837-8.8778 1.9728-3.4525 6.905-9.8643 11.344-11.837 4.4389-1.9728 20.222-5.9186 23.181-9.8643 2.9593-3.9457 16.276-5.4254 18.249-6.905 1.9728-1.4796 12.824-1.9729 14.796-6.4118 1.9728-4.4389 10.851-4.9321 13.317-8.8778 2.466-3.9457 6.4118-12.33 8.8778-10.851 2.466 1.4796 7.3982-9.8643 11.837-14.796 4.4389-4.9321 12.374-19.657 17.257-20.006 4.8826-0.34876 9.0676-0.34876 10.811 1.395 1.7438 1.7438 5.9288-4.5338 9.7651-3.8363 3.8363 0.69749 6.6263 2.79 10.114 3.1388 3.4876 0.34875 6.2776-2.79 8.0214-6.2776 1.7438-3.4876 5.9288 1.0463 8.0214 2.4413 2.0926 1.395 4.5338 1.0463 6.6263-0.34874 2.0926-1.395 3.1388 1.395 6.9751 1.7438 3.8363 0.34876 5.2313 1.0463 7.3238-0.34875 2.0925-1.395 6.9751 1.395 8.7189 2.0925 1.7438 0.69751 1.7438-2.0925 6.6263-0.69751 4.8826 1.395 23.018 6.2776 29.644 7.3238 6.6263 1.0463 16.391 2.79 20.577 0.69751 4.185-2.0925 13.601-4.8826 16.74-3.1388 3.1388 1.7438 18.484-0.34877 21.972-3.4876 3.4875-3.1388 4.8826-2.4413 6.9751-4.185 2.0925-1.7438-0.34877-3.1388 4.185-6.2776 4.5338-3.1388 6.6263-6.9751 12.904-10.463 6.2776-3.4876 9.4164-7.3238 11.16-11.16 1.7438-3.8363 13.253-6.9751 16.74-10.811 3.4876-3.8363 14.299-9.7651 15.694-11.858 1.395-2.0925 7.411-6.2776 9.4164-6.2776z" fill="#fafafa" style="paint-order:markers stroke fill"/> <path d="m269.08 102.75c-0.77578-0.0398-1.4597 0.3064-1.9501 1.2873-1.7438 3.4875-4.5334 6.626-8.021 6.2772-3.4875-0.34875-6.2777-2.4408-10.114-3.1383-3.8363-0.69752-8.0217 5.58-9.7655 3.8362-1.7437-1.7438-5.9287-1.7439-10.811-1.3952-4.8825 0.34875-12.818 15.073-17.257 20.006-4.439 4.9321-9.3709 16.276-11.837 14.796-2.4661-1.4796-6.412 6.9054-8.878 10.851-2.4661 3.9457-11.344 4.4384-13.316 8.8774-1.9728 4.4389-12.824 4.9324-14.796 6.412-1.9729 1.4796-15.29 2.9593-18.249 6.905-2.9593 3.9457-18.742 7.891-23.181 9.8639-4.4389 1.9728-9.3712 8.3851-11.344 11.838-1.9728 3.4525-9.8641 4.4384-11.837 8.8774-1.9729 4.4389-26.634 12.33-31.072 13.81-4.4389 1.4796-8.8779 12.824-14.796 13.81-5.9186 0.98642-19.235 9.8644-26.633 14.796-1.5919 1.0613-3.5553 3.6584-5.6548 7.0722 4.3383-2.1192 12.466-6.2594 13.546-8.0587 1.4796-2.4661 14.797-5.4251 18.743-7.3979 3.9457-1.9729 8.8778-1.4796 13.81-3.4525 4.9321-1.9728 8.3847 2.4659 11.344 1.4794 2.9593-0.98642 5.4249 4.439 5.4249 4.439s1.4801-1.9727 4.9326-4.9319c3.4525-2.9593 7.3982-13.81 10.357-14.796 2.9593-0.98642 6.9047 6.9052 10.85 5.4255 3.9457-1.4796 8.3849 0.98633 13.317 2.466 4.9321 1.4796 11.344-3.7e-4 16.769-0.49359 5.4254-0.49321 7.3985-4.9318 9.8646-7.3979 2.4661-2.4661 4.4386-3.4528 7.3979-2.9596 2.9593 0.49322 8.385-2.4658 10.851-3.9454 2.4661-1.4796 6.9046 3.9455 9.8639 1.4794 2.9593-2.4661 6.9053-0.98594 9.8645 1.4801 2.9593 2.4661 7.3982 0.49322 13.81 0 6.4118-0.4932 5.9181-5.4258 8.8774-11.838 2.9593-6.4118 8.3848-11.837 11.344-15.289 2.9593-3.4525 4.9323 2.8e-4 8.878-3.9454 3.9457-3.9457 4.4392-7.8915 9.8646-7.8915 5.4253 0 7.3976-5.9188 11.343-8.878 3.9457-2.9593 13.81-14.303 19.236-17.262 5.4254-2.9593 4.9322-10.357 7.8915-10.357s5.4255-4.932 5.4255-8.3844c0-3.4525 3.9453-5.4256 6.4114-9.8646 2.1758-3.9164 6.2692-12.056 7.8807-20.015-0.53031 0.0143-1.0046 0.12892-1.3857 0.38301-2.0925 1.395-3.4881 0.69738-7.3244 0.34862-3.8363-0.34875-4.8826-3.1388-6.9751-1.7438-2.0925 1.395-4.5333 1.7436-6.6258 0.34861-1.504-1.0027-4.089-3.6265-6.0716-3.7283z" fill="#dbe8f3" style="paint-order:markers stroke fill"/> <path d="m168.68 168.73c-2.8316 0.70322-5.4715 1.1685-6.35 1.8274-1.9729 1.4796-15.29 2.9593-18.249 6.905-2.9593 3.9457-18.742 7.891-23.181 9.8639-4.4389 1.9728-9.3712 8.3851-11.344 11.838-1.9728 3.4525-9.8641 4.4384-11.837 8.8774-1.9729 4.4389-26.634 12.33-31.072 13.81-4.4389 1.4796-8.8779 12.824-14.796 13.81-5.9186 0.98642-19.235 9.8644-26.633 14.796-2.593 1.7287-6.1688 7.5207-9.7196 14.31l72.021-4.1423 70.797-37.317s2.7906-10.463 2.0931-13.253c-0.69751-2.79-3.1391-4.8822-1.0465-6.2772 2.0925-1.395 1.3949-5.9293 0.34863-9.4168-1.0463-3.4875 3.1389-9.0676 4.8827-12.206 1.5967-2.874 1.4477-7.7967 4.087-13.426z" fill="#f0f5fa" style="paint-order:markers stroke fill"/> <path d="m317.5 110.59c-4.047 2.2713-9.2213 5.8762-9.2213 9.489 0 5.9288-3.1385 8.7192-5.9286 8.0216-2.79-0.69751-8.0213 6.975-10.811 10.811-2.79 3.8363-8.37 11.509-9.0675 13.95-0.69755 2.4413-2.0929 9.0672-0.69792 11.509 1.395 2.4413 2.0927 4.1854-0.34863 6.2779-2.4413 2.0925-3.1385 7.6722-2.441 11.509 0.69751 3.8363-3e-5 9.0681-1.7438 12.904-1.7438 3.8363 1.3952 9.0675 3.1389 14.299 1.7438 5.2313 2.0926 6.6262 1.7438 12.555-0.34877 5.9288 1.395 3.4875 3.4876 0 2.0925-3.4876 4.1848-5.9287 4.1848-2.0924 0 3.8363 2.0922 1.0459 4.1848-0.69792 2.0925-1.7438 1.395-8.021 3.4875-9.7648 2.0925-1.7438 1.0468 1.7438 2.0931 5.2313 1.0463 3.4875-3.4878 8.0208-4.5341 11.857-1.0462 3.8363 2.441 3.4875 4.1848 0 1.7438-3.4875 1.3951 0.69765 3.4876-0.34862 2.0925-1.0463-0.69726-8.0211 1.0465-11.16 1.7438-3.1388 0-15.694 0-21.623s1.7438-10.812 1.7438-14.3c0-3.4876 1.7434-11.509 4.5334-12.555 2.79-1.0463 5.5802 3.4877 6.6265 8.3703 1.0463 4.8826 2.0927 4.1848 4.8827 4.1848 2.7901 0 1.7438 1.0466 1.7438 4.5341 0 3.4876-6.6262 14.996-7.3237 16.391s-8.3703 5.929-10.114 10.114c-1.7438 4.1851 1.0465 8.3701 2.7903 10.463s-2.4417 5.2316-0.69791 4.5341c1.7438-0.69749 5.58-5.2313 7.3237-5.2313s9.7657 4.8822 12.556 6.2772c2.79 1.395 6.9751-0.34891 8.7189-3.1389 1.7438-2.79 1.0462-6.9746 3.8362-8.3696 2.79-1.395 3.8359-15.346 1.0459-12.904-2.79 2.4413-0.34874-2.7895-1.7438-4.882-1.395-2.0925-1.3945-5.5804 0.34933-9.7654 1.7437-4.1851 0.69747-5.2314 0-6.9751-0.69755-1.7438-5.2314 6.9751-5.2314 6.9751s2.4412-8.3699 0.34864-9.4161c-2.0925-1.0463-9.4168 17.786-9.4168 17.786s2.0925-7.6728 5.2313-15.345c3.1388-7.6726-1.046-9.7652-2.441-12.206-1.395-2.4413-7.6725-10.463-9.0675-13.95-1.395-3.4876-2.8e-4 -5.5801 2.441-6.9751 2.4412-1.395-0.34854-10.462-0.69727-13.601-0.34878-3.1388 1.7439-4.5341 1.3952-8.0216-0.30236-3.0237 0.18651-6.3214 2.139-12.824-2.5585-0.65772-5.0432-1.3121-7.2172-1.8962z" fill="#94aab8" style="paint-order:markers stroke fill"/> <path d="m351.07 235.51c-1.5689-0.0363-4.2135 1.5198-7.7276 0.64127-5.9185-1.4796-3.4528 8.878-13.317 15.783-9.8642 6.905-11.344-3.4e-4 -12.823-3.9461-1.4796-3.9457-7.3981-6.905-9.371-3.4525-1.9728 3.4525-12.823-0.98604-14.303 3.9461-1.4796 4.9321-11.837-2.9593-12.823 3.4525-0.98641 6.4118-7.3983-4.9327-7.8916 0.98585-0.49317 5.9186-9.3714 0.4936-10.851-2.9589-1.4796-3.4525-7.3977-3e-4 -8.8774 3.9454-1.4797 3.9457-14.303 3.9462-19.236 1.4801-4.9322-2.4661-5.4251-2.9598-11.837-1.4801-6.4118 1.4796-11.838 0-9.3716-3.4525 2.4661-3.4525-8.8778-4.9319-13.81-1.4794-4.9321 3.4525-8.3842 1.973-9.8639-2.466-1.4796-4.4389-9.3714-3.9456-14.304 0.98652-4.9321 4.9322-33.045-0.4934-39.95-1.973-6.905-1.4796-14.796 0.49312-19.728 5.9185s-9.8643 5.919-10.357 10.851c-0.48014 4.8014-31.805 18.95-50.301 31.072h807.32c-12.275-14.72-11.035-0.75243-17.198-13.317-2.9541-6.023-10.85-3.4528-16.769 0.49291-5.9186 3.9457-8.8781 0.98682-9.8645-2.9589-0.98649-3.9457-41.923-9.8645-41.923-9.8645s-14.303-2.4661-19.235-3.4525c-4.9321-0.98645-12.33-1.9729-14.303 3.4525s-7.3983 7.3985-12.33 9.8645c-4.9321 2.4661-9.8646-3.9455-13.317-8.3844-3.4525-4.4389-11.344-3.4525-17.262-6.905-5.9185-3.4525-4.932 0.49294-12.823 3.9454-7.8914 3.4525-15.783-0.49322-17.755-3.4525s-13.81 4.9323-16.276-1.4794c-2.4661-6.4118-8.8778 2.4661-13.81 0-4.9321-2.4661-8.3847-1.4798-11.344 1.4794-2.9593 2.9593-26.14 3.9454-29.593 0.49293-3.4525-3.4525-24.661-2.4661-33.046 0-8.3846 2.4661-7.8913-4.4383-12.823-4.4383-4.9322 0 1.7e-4 -7.3982-4.9319-10.357-4.9321-2.9593-5.9183 5.425-7.3979-0.49361-1.4797-5.9186-7.8918-4.439-10.851-4.439s-15.29 11.344-18.249 18.249c-2.9593 6.905-12.824 3.9459-14.797 8.878-1.9728 4.9321-6.9046 3.4526-16.769 0.98651-9.8643-2.4661-6.4118-5.9186-13.81-7.8915-7.3982-1.9728-9.3709 0.98623-15.289-1.973-5.9186-2.9593-5.9186-6.9049-13.81-5.9185-7.8915 0.98642-5.9189-5.9184-3.9461-8.3844 1.9728-2.466-7.8916-11.837-12.331-10.851-4.4389 0.98643-8.8773 6.9051-15.782 7.8915-6.905 0.98642-10.358 3.9458-15.783 7.8915-5.4254 3.9457-18.742-0.49331-22.688-4.439-3.9457-3.9457-12.823-1.973-12.823-8.878 0-2.8052-0.56986-3.5753-1.6433-3.6002z" fill="#809aab" style="paint-order:markers stroke fill"/> <path d="m477.43 49.279c-2.0053 0-8.0218 4.1847-9.4168 6.2772-1.395 2.0925-12.206 8.0215-15.694 11.858-3.4875 3.8363-14.996 6.975-16.74 10.811-1.7438 3.8363-4.883 7.673-11.161 11.161-6.2776 3.4875-8.3699 7.3239-12.904 10.463-4.5338 3.1388-2.0923 4.5334-4.1848 6.2772-2.0925 1.7438-3.4876 1.046-6.9751 4.1848-2.993 2.6937-14.713 4.6151-19.962 4.0041 7.8345 7.0083 11.772 5.7256 15.08 5.0641 3.4875-0.69751 8.0211-4.5341 11.16-4.5341 3.1388 0 6.975-3.836 9.0675-5.9286 2.0925-2.0925 11.858-5.2316 13.602-4.5341 1.7437 0.69751 4.8828-5.5797 6.2779-4.5334 1.395 1.0463 8.37 0.34847 10.811-1.0465 2.4413-1.395 4.8824-1.395 5.58-3.4875 0.69751-2.0925 2.7902-1.7435 4.8827-0.69725 2.0925 1.0463 3.8362-3.1391 7.3237-4.5341 3.4876-1.395 3.4875-3.4877 3.8362-6.6265 0.34876-3.1388 2.7899-4.1848 3.8362-7.6723 1.0462-3.4875 0.34874-4.5341 1.7438-6.2779 1.395-1.7438 2.0929-3.4873 0.69792-4.1848-1.395-0.69751 1.3946-8.7189 2.7896-10.463 1.1393-1.4241 0.65521-2.4213 0.43763-5.5746-0.0295-0.0013-0.0589-0.0052-0.0883-0.0052z" fill="#dbe8f3" style="paint-order:markers stroke fill"/> <path d="m486.84 208.66c2.5739 2.7578 3.8363 3.4875 6.6263 1.7438 2.79-1.7438 7.6726 9.0676 9.7651 8.3701 2.0925-0.69751 12.904-7.6726 14.648-10.114 1.7438-2.4413 0.34878 4.185 3.8363-0.69751 3.4875-4.8826 1.0463-6.6263 4.8826-10.811 3.8363-4.185 10.811-6.2776 13.601-14.648 2.79-8.3701 16.391-16.043 16.74-19.181 0.34878-3.1388 11.16-14.996 11.858-14.648 0.69751 0.34875 2.79 17.438 4.8826 19.53 2.0925 2.0925 8.3701 3.8363 10.811 2.4413 2.4413-1.395 10.811-1.0463 10.811-2.79 0-1.7438-6.6263-10.463-10.463-13.253-3.8363-2.79-2.79-3.1388-5.9288-4.1851-3.1388-1.0462-4.185-0.34874-3.8363-3.8363 0.34877-3.4875-0.69751-6.9751 0.69753-9.0676 1.395-2.0925-2.0925-2.4413-0.34876-4.185 1.7438-1.7438-2.4413-3.4876-0.69751-5.9288s6.9751-4.8826 5.5801-7.3238c-1.395-2.4413-4.185-6.6263-6.2776-6.9751-2.0925-0.34876-5.9288 1.0463-5.58-1.0463 0.34873-2.0925-3.4876 0-0.69755-4.5338 2.7901-4.5338 3.1388-3.4875 1.0463-4.8826-2.0925-1.395-5.9288 10.114-8.0214 9.0676-2.0925-1.0463-7.3238 7.6726-7.3238 2.79 0-4.8826-3.1388-6.6263-2.79-10.463 0.34874-3.8363-5.9288-6.2776-6.2776-10.811-0.34874-4.5338-4.8826-5.5801-3.4875-8.0213 1.395-2.4413 2.79-3.1388 2.79-5.2313s0.69751-3.8363-1.395-2.0925c-2.0925 1.7438-4.8826 3.4876-6.6263 2.0925-1.7438-1.395-3.1388-2.0925-6.2776-1.395-3.1388 0.69751-7.6726 1.0463-8.0213-2.0925-0.34877-3.1388-5.2313 5.9288-7.6726 3.1388-2.4413-2.79-3.8363 3.8363-2.79 8.0214 1.0462 4.185-3.4875 5.5801-0.34878 6.9751 3.1388 1.395 1.395 2.4413-0.6975 4.1851-2.0925 1.7438 1.395 1.7438-0.34874 4.5338-1.7438 2.79-5.2313 1.0463-4.1851 4.185 1.0463 3.1388 4.1851 8.3701 3.1388 10.463-1.0462 2.0925-1.395 9.7651-3.4875 6.9751-2.0925-2.79-5.5801-5.2313-5.9288-2.0925-0.34877 3.1388-1.0463 9.4164-3.8363 11.16-2.79 1.7438-4.8826 2.4413-3.8363 8.0214 1.0463 5.5801 0.34877 8.0214-2.4413 9.7651-2.7901 1.7438-3.8363 1.0463-4.8826 4.5338-1.0462 3.4875-2.79 3.4875-2.4413 6.2776 0.34874 2.79 2.4413 4.185-0.34877 5.9288-2.79 1.7438-9.0676 15.345-9.7651 18.484-0.69749 3.1388-7.6726 12.904-5.2313 11.16 2.4413-1.7438 12.206-11.16 14.648-16.043 2.4413-4.8826 4.5338-12.206 7.3238-16.391 2.79-4.1851 9.7651-21.623 13.601-24.064 3.8363-2.4413 7.6726-4.1851 10.114-2.4413 2.4413 1.7438 5.9288 6.6263 8.3701 7.6726 2.4413 1.0463 2.4413 2.79 1.7438-2.4413-0.69751-5.2313-1.7438-10.463-4.1851-13.601-2.4413-3.1388-6.6263-4.5338-4.5338-8.3701 2.0926-3.8363 5.5801-6.2776 9.0676-5.2313 3.4875 1.0463 4.185 8.7189 7.6726 8.3701 3.4875-0.34876 15.345 7.3238 18.135 4.185 2.79-3.1388 0 2.0925 0 7.3238 0 5.2313 0.69751 6.2776-4.5338 8.0214-5.2313 1.7438-8.7188 2.79-8.7188 5.2313 0 2.4413 2.4413 4.5338-0.69751 6.2776-3.1388 1.7438 4.185 2.0925 1.7438 3.8363-2.4413 1.7438 0.34873 3.4876-1.395 5.2313-1.7438 1.7438-1.395 7.6726-3.8363 5.9288-2.4413-1.7438-5.2313-6.9751-7.6726-4.5338-2.4413 2.4413-7.3238 10.114-9.4164 12.555-2.0925 2.4413-10.114 13.253-13.253 15.694-3.1388 2.4413-16.051 10.628-13.601 13.253z" fill="#94aab8" style="paint-order:markers stroke fill"/> <path d="m432.27 102.32c-1.0824 1.2331-2.1737 2.3835-2.9724 2.0641-1.7438-0.69751-11.509 2.4416-13.602 4.5341-2.0925 2.0925-5.9287 5.9286-9.0675 5.9286-3.1388 0-7.6724 3.8366-11.16 4.5341-1.4838 0.29677-3.0957 0.71707-5.1275 0.46056 0.79912 3.0308 2.09 7.3637 3.3837 9.3042 2.0925 3.1388 0.69724 5.58 0.69724 7.3237 0 1.7438-4.5336-2.7896-5.9286-6.2772-1.395-3.4875-1.0464-3.8367-3.1389-5.9292-1.7764-1.7764-3.8067-4.0706-6.5126-10.266-0.17176-0.0596-0.33157-0.12344-0.46255-0.19623-3.1388-1.7438-12.555 1.0464-16.74 3.1389-2.8298 1.4149-8.2104 1.0744-13.447 0.38301 0.307 4.1793 1.0458 13.794 1.5894 17.055 0.69751 4.185 10.463 12.555 15.345 16.391 4.8826 3.8363 7.3236 4.1855 9.4162 7.673 2.0925 3.4876 6.2777 4.8827 6.6265 1.3952 0.34877-3.4875 3.1386 0.34822 7.6724 3.1383 4.5338 2.79 1.0464 5.9291 1.3952 9.7654 0.34873 3.8363 2.7899-1.0461 5.58-3.8362 2.79-2.79 2.7899-7.3243 2.0924-9.4168-0.69749-2.0925 2.4417-5.9283 4.1855-3.1383 1.7437 2.79 6.9748 1.3948 7.6723-1.0465 0.69755-2.4413 4.5338-1.046 8.7189-2.441 4.185-1.395 1.7439-6.2776-0.34862-8.7189-2.0925-2.4413 2.7899-5.929 3.8362-8.3703 1.0462-2.4413 1.0464 2.7902 1.3952 6.6265 0.34877 3.8363 4.8826 7.3236 6.9751 9.4161 2.0926 2.0925 6.2777 2.7899 6.6265 7.3237 0.34877 4.5338 2.441 9.4164 7.6724 13.95 5.2313 4.5338 9.7648 5.5804 11.509 4.5341 1.7438-1.0463-0.34853-11.509-2.441-14.997-2.0926-3.4876-8.0211-13.95-11.16-13.95-3.1388 0-9.0678-5.5798-10.114-7.6723-1.0463-2.0925-2.0923-3.4874-5.9286-5.58-3.8363-2.0925-2.4417-4.5337-2.4417-9.0675s2.79-0.69804 5.2313-2.0931c2.4412-1.395 2.7901 1.744 3.4876 4.5341 0.6975 2.79 5.5802 2.8e-4 8.3702 1.0465 2.79 1.0463 2.4413 7.6726 3.4876 5.2313 1.0463-2.4413 4.5341-6.9755 1.0465-7.673-3.4875-0.69751-4.1854-6.2776-6.2779-6.9751-2.0925-0.69752-3.4878-7.3235-4.5341-9.7648-0.65234-1.5222-1.8005-5.4717-2.6076-8.3419z" fill="#94aab8" style="paint-order:markers stroke fill"/> <path d="m486.14 79.97c0.20586 4.5291 1.7438 8.0214 0 10.114-1.7437 2.0925-4.185 2.79-3.8363 4.8826 0.34873 2.0925-0.34877-0.34876-2.4413 3.1388-2.0925 3.4875-2.79 3.8363-2.4413 6.9751 0.34876 3.1388-5.2313 1.7438-6.9751 4.5338-1.7438 2.79-8.3701 6.2776-8.3701 9.7651 0 3.4875-0.69751 6.2776-3.4875 7.6726-2.79 1.395-0.34877 6.9751-3.1388 4.5338-2.79-2.4413 0-8.3701-0.69751-13.253-0.69751-4.8826 0.34877-11.858 4.8826-13.95 4.5338-2.0925 10.463-8.7189 11.509-11.509 1.0462-2.79 1.7438-9.4164 3.8363-10.811 2.0925-1.395 5.2313-3.8363 4.8825 0.34876-0.34877 4.185 1.7438 4.5338 2.0925 2.4413 0.34877-2.0925 4.0416-8.0374 4.185-4.8826z" fill="#94aab8" style="paint-order:markers stroke fill"/> <path d="m501.49 70.553c1.1585 13.207-2.4413 19.53-2.0926 23.367 0.34878 3.8363-4.185 18.135-5.2313 22.32-1.0463 4.1851-3.4876 4.5338-4.8826 11.16-1.395 6.6263-3.4875 5.5801-2.79 8.7189 0.69751 3.1388-2.79 5.9288-5.9288 10.114-3.1388 4.185-4.8825 10.463-6.6263 14.299-1.7438 3.8363-7.6726 16.043-4.8826 3.4876 2.79-12.555 5.5801-15.694 7.3238-18.135 1.7438-2.4413-3.4876-3.8363-2.79-5.9288 0.69751-2.0925 8.0214-8.0214 9.4164-10.463 1.395-2.4413 4.5338-2.0925 4.5338-7.3238 0-5.2313-0.34877-9.4164 2.0925-11.858 2.4413-2.4413 4.8825-4.8826 4.8825-8.3701 0-3.4875-1.7438-12.206 0-14.299 1.7438-2.0925 2.4413-5.9288 3.1388-9.4164 0.69751-3.4875 3.2446-14.418 3.8363-7.6726z" fill="#94aab8" style="paint-order:markers stroke fill"/> <path d="m428.25 172.39c-1.7609 4.8764-4.5338 12.206-2.4413 13.95 2.0925 1.7438 1.395 5.2313 2.79 6.9751 1.395 1.7438 5.2313 5.9288 3.4875 8.7189-1.7438 2.79-5.5801-3.4876-6.2776 0-0.69755 3.4875-2.4413 1.395-3.8363 4.185-1.395 2.79-3.8363 7.3238-3.8363 4.185 0-3.1388 2.0925-7.3238 0-10.114-2.0925-2.79 0.6975-0.69751 0-3.8363-0.69751-3.1388-3.8363 0.34876-3.1388-3.1388 0.69751-3.4876 1.0463-13.253 3.4876-13.253 2.4413 0 1.0462-3.8363 4.185-4.5338 3.1388-0.69751 8.5626-11.398 5.5801-3.1388z" fill="#94aab8" style="paint-order:markers stroke fill"/> <path d="m755.66 115.81c-2.9594 0-13.07 8.385-15.782 10.851-2.7127 2.4661-1.7265 2.7128-4.6858 2.7128-1.7051 0-3.2517 1.0622-4.9596 2.0587-0.81154 0.70881-1.3307 1.2747-1.4525 1.6399-0.98641 2.9593-2.2195 6.4119-3.4525 9.6178-1.233 3.2059-2.2193 3.6991-4.9319 5.1787-2.7127 1.4796-2.2191 3.4524-4.6851 4.1922-2.4661 0.73983-2.713 6.1652-2.9596 8.6312-0.24657 2.4661-4.9322 1.7264-6.1652 5.4255-1.233 3.6991-4.6857 5.6719-3.6993 10.357 0.98645 4.6855 23.921 21.701 23.921 21.701s-0.49347-16.276 2.2192-19.236c2.7127-2.9593 3.6995-6.4114 3.9461-9.8639s4.6854-6.6586 7.6447-8.878c2.9593-2.2195 2.9589-2.2197 2.9589-4.6858 0-2.4661 0.74008-3.2055 2.9595-6.4114 2.2195-3.2059 2.4662-5.6718 0.98652-7.6447-1.4796-1.9728 1.7259-8.878 1.2327-10.604-0.49322-1.7262 1.48-3.2059 3.9461-1.7262 2.4661 1.4796 0.49312-1.2331 2.466-2.7128 1.8458-1.3844 1.1015-2.3399 1.4019-10.536-0.34079-0.0402-0.65663-0.0688-0.90896-0.0688z" fill="#dbe8f3" style="paint-order:markers stroke fill"/> <path d="m669.77 177.74c1.1728-5.1329 6.389-6.0695 7.6668-8.4654 1.2778-2.3959 2.7153-4.1528 3.6737-2.875 0.95835 1.2778 1.4375-0.95833 3.0348-2.2361 1.5973-1.2778 3.9931 0.47918 1.5973 3.5139-2.3959 3.0348-3.9931 3.514-0.47919 2.875 3.5139-0.63889 6.5487 1.757 6.2292-1.1181-0.31945-2.875-3.6736-0.15973-3.0348-3.0348 0.63891-2.875 1.1181-4.3126 3.8334-5.5903 2.7153-1.2778 1.5972-3.1945 3.8334-3.8334 2.2361-0.63889 5.7501-5.7501 4.7918-2.2361-0.95837 3.5139-0.63889 3.0348-1.757 6.2292-1.1181 3.1945-3.3542 0.47918-3.8334 3.5139-0.47918 3.0348-0.63888 4.7917 1.5973 1.5972 2.2361-3.1945 5.2709-10.542 5.1112-6.5487-0.15973 3.9931-1.2778 7.3473 2.3959 2.5556 3.6737-4.7917 5.1112-4.632 4.9514-1.5972-0.15972 3.0348 1.4375 3.5139 3.9931-1.1181 2.5556-4.632 9.7432-10.542 5.5904-3.3542-4.1528 7.1876-6.0695 5.4306-3.5139 7.1876 2.5556 1.757 3.0347 1.9167 1.5972 4.3126-1.4375 2.3959-1.5972 0.79861-2.0764 4.632s1.2778 10.382-0.63887 12.139c-1.9167 1.757-6.2292 8.7848-8.7848 11.021-2.5556 2.2361-5.9098 3.3542-7.9862 0.95834-2.0764-2.3958-3.9931-3.3542-3.0348-7.1876 0.95836-3.8334 2.5556-5.7501-0.15971-4.632-2.7153 1.1181-2.3958 3.0347-4.1528-1.757-1.757-4.7917-2.194 6.3503-3.3121 3.9544-1.1181-2.3959-3.0181-4.6267-7.0112-2.2308-3.9931 2.3959-5.8089-3.0014-4.3714-6.5153 1.4375-3.5139-6.5456 3.3221-5.7501-0.15973z" fill="#94aab8" style="paint-order:normal"/> <path d="m826.34 186.18c-4.2749-9.7373-11.643-12.98-12.789-16.033-1.1453-3.054-9.7346-11.643-13.552-14.697-3.8175-3.054-2.8631-2.8631-4.9628-6.2989-2.0996-3.4358-8.7802-10.88-9.9255-10.307-1.1452 0.5726 3.4357 5.3445 5.7262 9.7346 2.2905 4.3901-2.8631 2.8631-5.3445-4.0084-2.4813-6.8715-4.0084-5.3445-3.2448-1.9088 0.7635 3.4358-1.1452 0.57263-3.054 2.2905-1.9087 1.7179 1.7179 6.6806-1.7179 9.7346-3.4357 3.054-6.8715 3.2449-2.8631 5.9171 4.0084 2.6722-8.0168-2.8631-4.0084 1.9088 4.0084 4.7719 9.162 5.1536 8.0167 7.2532-1.1453 2.0996 2.8631 0.19087 2.0996 4.3901-0.76348 4.1992-0.19086 4.0084 2.8632 7.0624 3.054 3.054 2.4813 4.9627 1.9087 6.108-0.5726 1.1452-1.7178-2.8631-4.0084-5.3445-2.2905-2.4814-5.3445-7.2533-5.1536-5.7263 0.19089 1.527 3.054 4.7719 1.1452 4.581-1.9087-0.19088-3.6266-1.3361-2.8631 2.0996 0.76349 3.4357 5.3445 10.307 5.9171 12.407 0.57263 2.0996 2.4814 7.2532 0.38176 5.1536-2.0996-2.0996-4.1993-7.635-4.7719-5.1536-0.57261 2.4814-0.19087 8.7802-2.0996 7.4441-1.9088-1.3361-3.4358-6.4897-5.7263-5.1536-2.2905 1.3362-13.552-1.7179-15.461-0.38174-1.9088 1.3361-6.4897-4.581-9.5437-4.0084-3.054 0.57262-0.38178 8.2076-5.7263 10.116-5.3445 1.9088-11.452-0.38174-13.743 2.0996-2.2905 2.4814-11.834 3.6266-10.689 0.9544 1.1452-2.6722-14.697-3.4357-14.697-3.4357l2.6722 23.859s77.113-3.6266 81.503-8.0167c4.3901-4.3901 4.1992-7.635 6.8714-6.8715 2.6723 0.76351 2.4814-4.1992 4.0084-2.0996 1.527 2.0996 6.4898-3.4358 7.2532-1.527 0.7635 1.9087 0.38176-3.2448 2.4814-1.3361 2.0996 1.9087 3.6266-2.4814 5.7263-1.3361 2.0996 1.1452 2.4813-4.7719 6.2988-4.7719 3.8175 0 9.7346 0 8.7802-1.7179-0.95438-1.7178-8.3985-7.4441-8.9711-8.3985-0.57262-0.95437 0.57263-3.2449 1.3361-1.9088 0.7635 1.3361 0.38176-2.4814 1.7179-0.76351 1.3361 1.7179-4.0084-8.5893 2.6722-1.7178 6.6806 6.8715 8.1442 5.7514 5.5354-0.19088z" fill="#94aab8" style="paint-order:normal"/> <path d="m703.05 167.41c-1.6116-0.0168-4.8753 2.6804-6.8173 4.6224-2.2195 2.2194-4.4388 1.7262-5.9185 3.4525-1.4796 1.7262-6.9049 3.2061-9.371 1.973-2.4661-1.233-2.7129-2.4664-5.4255-1.2333-2.7126 1.233-5.5912 1.7779-11.344-0.49293-3.6268-1.4316-13.81 3.4525-16.523 3.4525-2.7127 0-8.3842 1.4796-11.59 3.4525-3.2059 1.9728-17.262 1.4796-18.989 2.466-1.7262 0.98642-11.59 1.7261-13.81 1.4795-2.2194-0.24662-5.9188 2.9596-8.1383 3.9461-2.2195 0.98642-7.6446-0.2467-8.3844 2.466-0.73984 2.7127-5.1788 1.726-7.8915 2.2192-2.7127 0.49322-6.1651-1.2328-7.6447-3.2057-1.4796-1.9729-8.138-2.7125-10.357-1.4794s-10.604 0.73972-12.823 0.73972-6.9048 3.699-8.3844 4.1922c-1.4797 0.49324-8.6314 7.3982-10.604 8.6312-1.9728 1.233-4.932 6.4118-7.6447 8.6312-2.7127 2.2194-9.3714 3.946-12.577 4.6858-3.2059 0.73981-1.805 1.9489-5.5786 0.49021-0.81328-0.31435-3.4873-4.5339-5.0567-5.7546-1.5694-1.2206-2.6155-2.441-2.9643-3.3129-0.34873-0.87188-1.9183 0.69738-4.0108 1.2205-2.0925 0.52313-1.2206-0.34848-2.6156-1.5691-1.395-1.2206-1.2208-1.9186-3.1389-0.69791-1.9182 1.2206-5.2315-0.52314-8.3703-0.8719-3.1388-0.34875-4.8822 1.3956-8.021 3.8369-3.1388 2.4413-3.8364 2.4413-8.3702 1.7438-4.5338-0.69751-7.6728 0.34822-10.114-0.34929-2.4413-0.69751-5.9283 4.5338-8.3696 5.2313-2.4413 0.69751-8.0216 8.0216-9.7654 11.858-1.7438 3.8363-5.5798 3.8362-9.4161 5.58-3.8363 1.7438-4.5343 8.7192-9.4168 8.0216-4.8826-0.69751-9.0675 9.4164-12.555 6.9751-3.4875-2.4413-4.1852 5.9286-6.6265 5.9286-2.4413 0-2.4409 5.9286-6.2772 5.9286-3.8363 0-5.5803 1.3956-6.2778 5.5806-0.69754 4.185-6.6263 5.9284-10.811 9.7648-4.185 3.8363-8.0215 5.2316-10.114 8.0216-2.0926 2.79-1.0459 6.6262-8.021 5.58-2.4714-0.37071-3.933 0.92487-4.7937 2.7492h521.12c-3.757-4.1836-8.9778-9.7243-10.281-9.7243-2.0925 0-5.5801-2.4412-6.9751-5.5799-1.395-3.1388-2.092-3.1391-6.6258-2.7903-4.5338 0.34875-9.0681-4.5334-11.161-9.7648-2.0925-5.2313-17.438-10.812-21.274-14.3-3.8363-3.4875-12.555-3.487-14.647-4.882s-5.5804-3.8365-6.2779-6.6265c-0.69749-2.79-2.0921-2.0925-6.2772-3.4876-4.1851-1.395-2.4416-1.0464-4.5341-4.8827-2.0925-3.8363-24.762-11.858-29.644-16.043-4.8826-4.1851-7.2732-2.946-17.583-10.699-1.4348-1.079-5.918-11.344-7.1511-13.316-1.233-1.9728-12.577-12.577-14.057-13.563-1.4796-0.98642-7.8911-9.1249-9.1241-10.111-0.15415-0.12331-0.35105-0.18099-0.58127-0.18341z" fill="#f0f5fa" style="paint-order:markers stroke fill"/> <path d="m703.05 167.41c-1.6116-0.0168-4.8753 2.6804-6.8173 4.6224-2.2195 2.2194-4.4388 1.7262-5.9185 3.4525-1.4796 1.7262-6.9049 3.2061-9.371 1.973-2.4661-1.233-2.7129-2.4664-5.4255-1.2333-2.7126 1.233-5.5912 1.7779-11.344-0.49293-3.6268-1.4316-13.81 3.4525-16.523 3.4525-2.7127 0-8.3842 1.4796-11.59 3.4525-3.2059 1.9728-17.262 1.4796-18.989 2.466-1.7262 0.98642-11.59 1.7261-13.81 1.4795-2.2194-0.24662-5.9188 2.9596-8.1383 3.9461-2.2195 0.98642-7.6446-0.2467-8.3844 2.466-0.73984 2.7127-5.1788 1.726-7.8915 2.2192-2.7127 0.49322-6.1651-1.2328-7.6447-3.2057-1.4796-1.9729-8.138-2.7125-10.357-1.4794s-10.604 0.73972-12.823 0.73972-6.9048 3.699-8.3844 4.1922c-1.4797 0.49324-8.6314 7.3982-10.604 8.6312-1.9728 1.233-4.932 6.4118-7.6447 8.6312-2.7127 2.2194-9.3714 3.946-12.577 4.6858-3.2059 0.73981-1.805 1.9489-5.5786 0.49021-0.81328-0.31435-3.4873-4.5339-5.0567-5.7546-1.5694-1.2206-2.6155-2.441-2.9643-3.3129-0.34873-0.87188-1.9183 0.69738-4.0108 1.2205-2.0925 0.52313-1.2206-0.34848-2.6156-1.5691-1.395-1.2206-1.2208-1.9186-3.1389-0.69791-1.9182 1.2206-5.2315-0.52314-8.3703-0.8719-3.1388-0.34875-4.8822 1.3956-8.021 3.8369-3.1388 2.4413-3.8364 2.4413-8.3702 1.7438-4.5338-0.69751-7.6728 0.34822-10.114-0.34929-2.4413-0.69751-5.9283 4.5338-8.3696 5.2313-2.4413 0.69751-8.0216 8.0216-9.7654 11.858-1.7438 3.8363-5.5798 3.8362-9.4161 5.58-3.8363 1.7438-4.5343 8.7192-9.4168 8.0216-4.8826-0.69751-9.0675 9.4164-12.555 6.9751-3.4875-2.4413-4.1852 5.9286-6.6265 5.9286-2.4413 0-2.4409 5.9286-6.2772 5.9286-3.8363 0-5.5804 1.3956-6.2778 5.5806-0.69754 4.185-6.6263 5.9284-10.811 9.7648-4.185 3.8363-8.0215 5.2316-10.114 8.0216-2.0926 2.79-1.0459 6.6262-8.021 5.58-2.4714-0.37071-3.933 0.92487-4.7937 2.7492h284.53c1.9978-3.1314 4.7233-7.6519 5.6251-10.357 1.4797-4.4389 5.9186-6.4123 6.905-9.3716 0.98641-2.9593 15.783-0.49311 19.235-2.466 3.4525-1.9728 5.4254-9.8643 4.439-13.81-0.98641-3.9457 9.3706-15.782 9.8639-20.221 0.49322-4.4389 4.4389-8.3846 3.4525-10.357-0.98641-1.9728 8.3851-10.357 8.3851-12.823 0-2.4661 3.4521-6.412 2.9589-8.878-0.49324-2.4661 8.8782-7.8915 7.3985-11.344-1.4796-3.4525-0.98683-12.33-0.49357-17.262 0.43081-4.3086 1.9903-4.4784 2.7067-9.0554-0.0271-3e-3 -0.0534-5e-3 -0.0815-7e-3z" fill="#dbe8f3" style="paint-order:markers stroke fill"/> <path d="m540.59 194.99c-0.37643 0.21396-0.71463 0.39262-0.95079 0.47133-1.4797 0.49324-8.6314 7.3982-10.604 8.6312-1.8731 1.1707-4.6351 5.8932-7.2313 8.2678-3.858 5.3082-10.27 13.822-10.548 16.874-0.34873 3.8363-4.5341 10.463-2.7903 13.253 1.7438 2.79-2.7899 4.1846-0.34862 6.6258 2.4412 2.4413 1.8827 4.9946 6.9751 0.69791 6.0782-5.1286 20.228-19.182 22.32-27.9 2.0925-8.7189 3.1382-12.555 1.3945-13.95-1.7438-1.395 3.1392-3.1388 2.4417-6.9751-0.54118-2.9764 0.59528-5.9506-0.6588-5.9953z" fill="#94aab8" style="paint-order:markers stroke fill"/> <path d="m552.99 255.12c-0.3322-5.4813 1.3711-6.8556-0.27424-7.9525-1.6454-1.0969-3.0164-1.0969-2.1938-3.0165 0.82268-1.9196 0.82268-4.6618 4.1134-6.5814 3.2907-1.9196 9.872-5.4845 12.34-6.0329 2.468-0.54845 9.8721-4.936 11.792-5.2102 1.9196-0.27424-0.54845 3.8391 0.27424 6.3071 0.82266 2.468 1.3711 6.3071 4.3876 5.4845 3.0165-0.82267 7.9525-1.6453 9.8721-3.8391 1.9196-2.1938 6.8556 1.6453 7.6782-0.54844 0.82268-2.1938 1.0969-5.4845 4.3876-7.1298 3.2907-1.6454 5.2102 3.2907 6.3071-0.54846 1.0969-3.8391 6.8556-2.1938 7.1298-4.936s6.8556-2.7422 7.1298-6.0329c0.27424-3.2907 2.7422-8.2267 3.0165-12.34 0.27422-4.1134 0.27422-1.9196 5.2102-4.1134 4.936-2.1938 6.5814-0.82266 7.6782-3.8391 1.0969-3.0165 8.2267-7.6783 8.2267-7.6783l-17.276 38.391s10.969-17.825 10.695-18.921c-0.27422-1.0969 1.0969-5.2102 3.2907-6.5814 2.1938-1.3711 2.468-3.8391 4.1133-6.5814 1.6453-2.7422 3.5649-0.82267 5.7587-2.468 2.1938-1.6454 5.7587-2.468 5.7587-4.1134 0-1.6454 2.468-7.404 4.1134-9.3236 1.6454-1.9196 6.0329 1.6454 5.7587 4.1134-0.27422 2.468 0.82269 5.4845-2.468 8.2267-3.2907 2.7422-3.0165 7.1298-5.2103 9.3236-2.1938 2.1938-5.7587 2.7422-5.7587 5.4845 0 2.7422 1.3711 5.7587-2.468 7.404-3.8392 1.6453-7.1298 4.1134-9.3236 5.7587-2.1938 1.6453-7.1298 5.2102-5.7587 6.3071 1.3711 1.0969 0.27424 1.3711-2.1938 3.5649-2.468 2.1938-5.4844 6.3072-5.7587 8.2267-0.27422 1.9196-1.6453 4.1134-6.0329 6.5814-4.3876 2.468-7.9525 5.7587-9.872 5.2102-1.9196-0.54845-4.6618-0.54845-7.9525 2.7422-3.2907 3.2907-4.1133 6.8556-7.9525 5.7587-3.8391-1.0969-6.8556-2.7422-8.7751-1.3711-1.9196 1.3711-3.8392-0.27423-6.0329-2.7422-2.1938-2.468 1.0969-5.7587 3.0165-7.9525 1.9196-2.1938 3.0165-3.8391-0.54846-3.0165-3.5649 0.82268-8.7752-1.9196-9.0494 0-0.27422 1.9196 0 5.4845-1.9196 7.6783-1.9196 2.1938-3.8391 8.2267-6.0329 8.5009-2.1938 0.27422-8.5009 1.6453-7.9525-1.6454s2.468-9.0494 2.7422-10.42c0.27423-1.3711-2.1938-1.0969-2.468 0.82267-0.27423 1.9196-3.5649 9.3236-5.4845 10.42-1.9196 1.0969-5.8166 2.1978-6.0329-1.3711z" fill="#94aab8" style="paint-order:normal"/> <path d="m710.53 196.02c-0.84289 3.29-0.50018 7.4323 2.2592 8.0626 2.7594 0.63029 5.3698-0.0168 4.3308 1.9608-1.039 1.9769 2.056-1.6317 1.1724 3.7699-0.88361 5.4016 1.4133 6.6719 1.594 8.8483 0.18073 2.1764 1.2611 4.3212-2.6228 6.1905-3.8839 1.8694-6.7574 1.936-7.0677 4.9267-0.3103 2.9907 3.2284 2.1383 2.2243 6.0889-1.0041 3.9506-0.73143 7.7523 1.879 7.1058 2.6104-0.64641 4.4099-0.70988 2.4486-6.219-1.9613-5.5092-3.159-8.0309-0.97932-7.1376 2.1797 0.89329 2.3539 0.9218 3.2601 3.038 0.90618 2.1162 8.3196 6.0126 6.219 2.4486-2.1006-3.564-3.7989-8.4934-0.9255-8.56 2.8734-0.0667 4.5556-0.50713 1.2988-2.4712-3.2568-1.964-5.7377-6.4847-4.4927-7.5334 1.245-1.0487-3.1526-5.8829-0.48184-5.8039 2.6707 0.0791 2.7373 2.9525 3.729 4.546 0.99168 1.5935 5.6775 5.7593 3.3424 1.4413-2.3351-4.3179 2.4298-2.8228-1.708-8.1513-4.1378-5.3285-9.321-10.828-7.6071-10.369 1.714 0.45926-6.6928-6.7877-7.8727-2.1824z" fill="#94aab8" style="paint-order:normal"/> <path d="m139.04 197.53c-1.4031-0.0461-7.0801 9.7085-8.2381 12.308-1.3984 3.1386-2.526-0.62284-4.2758-1.8578-1.7499-1.2349-3.3555 2.7462-5.6838 4.584-2.3283 1.8378-4.8958 7.5459-7.7708 9.4276-2.875 1.8817-8.9834 11.451-11.158 15.202-2.1745 3.7512-4.4489 2.8336-9.2347 11.747l1.9838 7.9239 57.077-30.085c0.68112-2.8147 1.2816-6.1985 2.4754-9.7452 2.665-7.9172-10.797 16.274-6.4384 5.4694 4.3587-10.804 1.9645-9.7869-4.0466-2.4262-6.011 7.3608-4.703-3.7483-1.6865-7.292 3.0165-3.5437-0.58055-3.8049-6.1767 1.8719-5.5962 5.6768 2.2498-6.2331 5.6373-12.008 3.3874-5.7744-3.1266 2.177-2.2212-3.673 0.15562-1.0055 0.0484-1.4375-0.24274-1.4471z" fill="#94aab8" style="paint-order:normal"/> <path d="m233.31 122.87c4.1896 1.5288 6.1871 6.5539 5.8986 8.8341-0.28843 2.2802-0.5157 0.23155-3.7407 0.11209-3.225-0.1194-6.7583 0.37353-8.3581 2.3312-1.5998 1.9577-4.3517 3.7037-6.1205 4.7166-1.7688 1.0129-3.6726 2.05-2.6709-0.915 1.0016-2.965 10.71-16.642 14.992-15.079z" fill="#94aab8" style="paint-order:normal"/> </g> </svg>